<?xml version="1.0" encoding="UTF-8"?>
<svg xmlns="http://www.w3.org/2000/svg" xmlns:xlink="http://www.w3.org/1999/xlink" width="468px" height="369px" viewBox="0 0 467 369" version="1.1">
<defs>
<filter id="alpha" filterUnits="objectBoundingBox" x="0%" y="0%" width="100%" height="100%">
  <feColorMatrix type="matrix" in="SourceGraphic" values="0 0 0 0 1 0 0 0 0 1 0 0 0 0 1 0 0 0 1 0"/>
</filter>
<mask id="mask0">
  <g filter="url(#alpha)">
<rect x="0" y="0" width="467" height="369" style="fill:rgb(0%,0%,0%);fill-opacity:0.2;stroke:none;"/>
  </g>
</mask>
<clipPath id="clip1">
  <rect x="0" y="0" width="467" height="370"/>
</clipPath>
<g id="surface5" clip-path="url(#clip1)">
<path style=" stroke:none;fill-rule:nonzero;fill:rgb(100%,100%,100%);fill-opacity:1;" d="M 159.621094 220.621094 C 159.117188 220.574219 158.609375 220.574219 158.105469 220.621094 C 155.410156 221.164062 154.59375 219.570312 154.550781 217.378906 C 154.515625 215.515625 153.472656 214.878906 151.96875 214.140625 C 150.15625 213.257812 149.21875 214.472656 148.195312 215.300781 C 146.535156 216.65625 145.226562 216.601562 143.945312 214.894531 C 143.558594 214.445312 143.140625 214.023438 142.699219 213.632812 C 139.511719 210.4375 139.511719 210.4375 141.789062 206.5 C 142.695312 204.925781 141.535156 202.175781 139.789062 201.738281 C 135.515625 200.703125 135.515625 200.703125 135.515625 196.21875 C 135.558594 195.710938 135.558594 195.203125 135.515625 194.695312 C 135.121094 192.261719 136.109375 191.222656 138.578125 190.914062 C 142.171875 190.507812 143.277344 187.800781 141.015625 184.878906 C 139.492188 182.90625 139.507812 181.480469 141.503906 180.015625 C 141.953125 179.632812 142.375 179.214844 142.765625 178.769531 C 146.089844 175.449219 145.550781 175.34375 149.347656 177.957031 C 151.226562 179.253906 154.019531 177.957031 154.445312 175.6875 C 155.171875 171.75 155.171875 171.75 159.265625 171.75 C 159.9375 171.804688 160.613281 171.804688 161.289062 171.75 C 163.957031 171.28125 164.847656 172.671875 165.171875 175.0625 C 165.628906 178.4375 168.296875 179.574219 171.011719 177.449219 C 173.054688 175.828125 174.574219 175.871094 176.089844 177.988281 C 176.472656 178.441406 176.890625 178.863281 177.335938 179.253906 C 180.605469 182.558594 180.652344 181.914062 178.089844 185.613281 C 177.484375 186.554688 177.375 187.734375 177.792969 188.773438 C 178.214844 189.8125 179.113281 190.578125 180.203125 190.832031 C 184.152344 191.78125 184.152344 191.78125 184.140625 195.851562 C 184.09375 196.613281 184.09375 197.375 184.140625 198.136719 C 184.398438 200.222656 183.601562 201.113281 181.445312 201.453125 C 177.25 202.117188 176.332031 204.4375 178.835938 207.859375 C 180.082031 209.5625 180.1875 210.820312 178.445312 212.128906 C 177.871094 212.628906 177.328125 213.171875 176.828125 213.75 C 173.867188 216.714844 173.867188 216.714844 170.359375 214.441406 C 168.660156 213.359375 165.804688 214.371094 165.300781 216.257812 C 164.125 220.621094 164.125 220.621094 159.621094 220.621094 Z M 159.949219 184.425781 C 156.792969 184.367188 153.746094 185.578125 151.488281 187.785156 C 149.230469 189.996094 147.949219 193.019531 147.929688 196.179688 C 147.984375 202.675781 153.222656 207.929688 159.703125 207.996094 C 166.1875 208.0625 171.53125 202.917969 171.71875 196.421875 C 171.761719 193.269531 170.546875 190.226562 168.339844 187.976562 C 166.132812 185.726562 163.121094 184.453125 159.972656 184.441406 Z M 159.949219 184.425781 "/>
</g>
<mask id="mask1">
  <g filter="url(#alpha)">
<rect x="0" y="0" width="467" height="369" style="fill:rgb(0%,0%,0%);fill-opacity:0.2;stroke:none;"/>
  </g>
</mask>
<clipPath id="clip2">
  <rect x="0" y="0" width="467" height="370"/>
</clipPath>
<g id="surface8" clip-path="url(#clip2)">
<path style=" stroke:none;fill-rule:nonzero;fill:rgb(0%,0%,0%);fill-opacity:1;" d="M 76.601562 174.503906 L 240.859375 174.503906 L 240.859375 181.082031 C 240.859375 184.261719 238.292969 186.84375 235.117188 186.855469 L 82.367188 186.855469 C 79.183594 186.855469 76.601562 184.269531 76.601562 181.082031 Z M 76.601562 174.503906 "/>
</g>
<mask id="mask2">
  <g filter="url(#alpha)">
<rect x="0" y="0" width="467" height="369" style="fill:rgb(0%,0%,0%);fill-opacity:0.2;stroke:none;"/>
  </g>
</mask>
<clipPath id="clip3">
  <rect x="0" y="0" width="467" height="370"/>
</clipPath>
<g id="surface11" clip-path="url(#clip3)">
<path style=" stroke:none;fill-rule:nonzero;fill:rgb(0%,0%,0%);fill-opacity:1;" d="M 168.820312 250.542969 L 182.453125 250.542969 L 180.679688 343.964844 L 172.589844 343.964844 Z M 168.820312 250.542969 "/>
</g>
<mask id="mask3">
  <g filter="url(#alpha)">
<rect x="0" y="0" width="467" height="369" style="fill:rgb(0%,0%,0%);fill-opacity:0.2;stroke:none;"/>
  </g>
</mask>
<clipPath id="clip4">
  <rect x="0" y="0" width="467" height="370"/>
</clipPath>
<g id="surface14" clip-path="url(#clip4)">
<path style=" stroke:none;fill-rule:nonzero;fill:rgb(0%,0%,0%);fill-opacity:1;" d="M 386.503906 250.542969 L 400.132812 250.542969 L 398.359375 343.964844 L 390.269531 343.964844 Z M 386.503906 250.542969 "/>
</g>
<mask id="mask4">
  <g filter="url(#alpha)">
<rect x="0" y="0" width="467" height="369" style="fill:rgb(0%,0%,0%);fill-opacity:0.2;stroke:none;"/>
  </g>
</mask>
<clipPath id="clip5">
  <rect x="0" y="0" width="467" height="370"/>
</clipPath>
<g id="surface17" clip-path="url(#clip5)">
<path style=" stroke:none;fill-rule:nonzero;fill:rgb(0%,0%,0%);fill-opacity:1;" d="M 283.894531 325.960938 L 325.277344 325.960938 C 319.191406 319.890625 310.828125 316.675781 302.25 317.101562 C 302.25 317.101562 292.332031 317.371094 283.894531 325.960938 Z M 283.894531 325.960938 "/>
</g>
<mask id="mask5">
  <g filter="url(#alpha)">
<rect x="0" y="0" width="467" height="369" style="fill:rgb(0%,0%,0%);fill-opacity:0.2;stroke:none;"/>
  </g>
</mask>
<clipPath id="clip6">
  <rect x="0" y="0" width="467" height="370"/>
</clipPath>
<g id="surface20" clip-path="url(#clip6)">
<path style=" stroke:none;fill-rule:nonzero;fill:rgb(0%,0%,0%);fill-opacity:1;" d="M 340.425781 172.882812 C 357.039062 174.074219 356.328125 193.992188 356.328125 193.992188 L 342.742188 264.90625 C 341.953125 269.054688 338.332031 272.058594 334.117188 272.058594 L 306.839844 272.058594 L 306.839844 314.859375 L 301.261719 314.859375 L 301.261719 272.058594 L 275.632812 272.058594 L 275.632812 266.117188 L 331.828125 266.117188 C 334.027344 266.117188 335.933594 264.589844 336.417969 262.4375 L 351.820312 194.015625 C 351.820312 194.015625 353.71875 179.324219 340.425781 172.882812 Z M 340.425781 172.882812 "/>
</g>
<mask id="mask6">
  <g filter="url(#alpha)">
<rect x="0" y="0" width="467" height="369" style="fill:rgb(0%,0%,0%);fill-opacity:0.2;stroke:none;"/>
  </g>
</mask>
<clipPath id="clip7">
  <rect x="0" y="0" width="467" height="370"/>
</clipPath>
<g id="surface23" clip-path="url(#clip7)">
<path style=" stroke:none;fill-rule:nonzero;fill:rgb(0%,0%,0%);fill-opacity:1;" d="M 340.640625 163.964844 L 343.546875 164.363281 C 345.695312 164.65625 347.753906 163.386719 348.460938 161.332031 L 353.679688 146.097656 C 354.070312 144.957031 353.925781 143.695312 353.285156 142.675781 C 352.640625 141.652344 351.570312 140.976562 350.375 140.835938 L 346.394531 140.371094 Z M 340.640625 163.964844 "/>
</g>
<mask id="mask7">
  <g filter="url(#alpha)">
<rect x="0" y="0" width="467" height="369" style="fill:rgb(0%,0%,0%);fill-opacity:0.2;stroke:none;"/>
  </g>
</mask>
<clipPath id="clip8">
  <rect x="0" y="0" width="467" height="370"/>
</clipPath>
<g id="surface26" clip-path="url(#clip8)">
<path style=" stroke:none;fill-rule:nonzero;fill:rgb(0%,0%,0%);fill-opacity:1;" d="M 224.925781 326.914062 L 238.117188 255.394531 C 238.390625 253.902344 239.6875 252.820312 241.199219 252.820312 L 269.996094 252.820312 L 242.339844 326.914062 Z M 224.925781 326.914062 "/>
</g>
<mask id="mask8">
  <g filter="url(#alpha)">
<rect x="0" y="0" width="467" height="369" style="fill:rgb(0%,0%,0%);fill-opacity:0.2;stroke:none;"/>
  </g>
</mask>
<clipPath id="clip9">
  <rect x="0" y="0" width="467" height="370"/>
</clipPath>
<g id="surface29" clip-path="url(#clip9)">
<path style=" stroke:none;fill-rule:nonzero;fill:rgb(0%,0%,0%);fill-opacity:1;" d="M 146.679688 238.589844 L 424.691406 238.589844 C 427.351562 238.589844 429.511719 240.753906 429.511719 243.421875 L 429.511719 243.425781 C 429.511719 246.09375 427.351562 248.257812 424.691406 248.257812 L 146.679688 248.257812 C 144.015625 248.257812 141.859375 246.09375 141.859375 243.425781 L 141.859375 243.421875 C 141.859375 240.753906 144.015625 238.589844 146.679688 238.589844 Z M 146.679688 238.589844 "/>
</g>
<mask id="mask9">
  <g filter="url(#alpha)">
<rect x="0" y="0" width="467" height="369" style="fill:rgb(0%,0%,0%);fill-opacity:0.2;stroke:none;"/>
  </g>
</mask>
<clipPath id="clip10">
  <rect x="0" y="0" width="467" height="370"/>
</clipPath>
<g id="surface32" clip-path="url(#clip10)">
<path style=" stroke:none;fill-rule:nonzero;fill:rgb(0%,0%,0%);fill-opacity:1;" d="M 25.09375 325.4375 C 25.09375 325.4375 46.597656 178.054688 56.445312 167.789062 L 59.554688 165.503906 L 90.011719 164.871094 C 90.011719 164.871094 97.644531 197.789062 94.628906 231.410156 C 94.628906 231.410156 86.992188 314.5 84.582031 324.96875 L 67.328125 324.96875 L 74.160156 219.132812 L 74.160156 214.902344 L 71.34375 214.902344 C 71.34375 214.902344 43.382812 321.8125 39.765625 326.242188 Z M 25.09375 325.4375 "/>
</g>
<mask id="mask10">
  <g filter="url(#alpha)">
<rect x="0" y="0" width="467" height="369" style="fill:rgb(0%,0%,0%);fill-opacity:0.2;stroke:none;"/>
  </g>
</mask>
<clipPath id="clip11">
  <rect x="0" y="0" width="467" height="370"/>
</clipPath>
<g id="surface35" clip-path="url(#clip11)">
<path style=" stroke:none;fill-rule:nonzero;fill:rgb(100%,100%,100%);fill-opacity:1;" d="M 58.347656 177.480469 L 53.582031 183.199219 L 52.492188 184.839844 L 73.925781 201.679688 L 82.136719 191.214844 "/>
</g>
<mask id="mask11">
  <g filter="url(#alpha)">
<rect x="0" y="0" width="467" height="369" style="fill:rgb(0%,0%,0%);fill-opacity:0.2;stroke:none;"/>
  </g>
</mask>
<clipPath id="clip12">
  <rect x="0" y="0" width="467" height="370"/>
</clipPath>
<g id="surface38" clip-path="url(#clip12)">
<path style=" stroke:none;fill-rule:nonzero;fill:rgb(0%,0%,0%);fill-opacity:1;" d="M 133.199219 93.96875 C 126.527344 91.160156 119.035156 91.015625 112.261719 93.566406 L 123.136719 118.917969 Z M 133.199219 93.96875 "/>
</g>
<mask id="mask12">
  <g filter="url(#alpha)">
<rect x="0" y="0" width="467" height="369" style="fill:rgb(0%,0%,0%);fill-opacity:0.501961;stroke:none;"/>
  </g>
</mask>
<clipPath id="clip13">
  <rect x="0" y="0" width="467" height="370"/>
</clipPath>
<g id="surface41" clip-path="url(#clip13)">
<path style=" stroke:none;fill-rule:nonzero;fill:rgb(0%,0%,0%);fill-opacity:1;" d="M 148.59375 109.949219 C 149.804688 113.152344 150.425781 116.554688 150.421875 119.980469 C 150.421875 131.257812 144.234375 140.789062 134.695312 145.316406 L 123.945312 120.296875 Z M 148.59375 109.949219 "/>
</g>
<mask id="mask13">
  <g filter="url(#alpha)">
<rect x="0" y="0" width="467" height="369" style="fill:rgb(0%,0%,0%);fill-opacity:0.301961;stroke:none;"/>
  </g>
</mask>
<clipPath id="clip14">
  <rect x="0" y="0" width="467" height="370"/>
</clipPath>
<g id="surface44" clip-path="url(#clip14)">
<path style=" stroke:none;fill-rule:nonzero;fill:rgb(0%,0%,0%);fill-opacity:1;" d="M 152.902344 107.441406 C 150.164062 100.785156 142.65625 93.023438 136.125 90.0625 L 123.945312 119.445312 Z M 152.902344 107.441406 "/>
</g>
<mask id="mask14">
  <g filter="url(#alpha)">
<rect x="0" y="0" width="467" height="369" style="fill:rgb(0%,0%,0%);fill-opacity:0.2;stroke:none;"/>
  </g>
</mask>
<clipPath id="clip15">
  <rect x="0" y="0" width="467" height="370"/>
</clipPath>
<g id="surface47" clip-path="url(#clip15)">
<path style=" stroke:none;fill-rule:nonzero;fill:rgb(0%,0%,0%);fill-opacity:1;" d="M 91.046875 74.976562 C 91.046875 76.496094 89.820312 77.726562 88.304688 77.726562 C 86.789062 77.726562 85.558594 76.496094 85.558594 74.976562 C 85.558594 73.460938 86.789062 72.226562 88.304688 72.226562 C 89.820312 72.226562 91.046875 73.460938 91.046875 74.976562 Z M 91.046875 74.976562 "/>
</g>
<mask id="mask15">
  <g filter="url(#alpha)">
<rect x="0" y="0" width="467" height="369" style="fill:rgb(0%,0%,0%);fill-opacity:0.2;stroke:none;"/>
  </g>
</mask>
<clipPath id="clip16">
  <rect x="0" y="0" width="467" height="370"/>
</clipPath>
<g id="surface50" clip-path="url(#clip16)">
<path style=" stroke:none;fill-rule:nonzero;fill:rgb(0%,0%,0%);fill-opacity:1;" d="M 109.269531 74.976562 C 109.269531 76.496094 108.042969 77.726562 106.527344 77.726562 C 105.007812 77.726562 103.78125 76.496094 103.78125 74.976562 C 103.78125 73.460938 105.007812 72.226562 106.527344 72.226562 C 108.042969 72.226562 109.269531 73.460938 109.269531 74.976562 Z M 109.269531 74.976562 "/>
</g>
<mask id="mask16">
  <g filter="url(#alpha)">
<rect x="0" y="0" width="467" height="369" style="fill:rgb(0%,0%,0%);fill-opacity:0.2;stroke:none;"/>
  </g>
</mask>
<clipPath id="clip17">
  <rect x="0" y="0" width="467" height="370"/>
</clipPath>
<g id="surface53" clip-path="url(#clip17)">
<path style=" stroke:none;fill-rule:nonzero;fill:rgb(100%,100%,100%);fill-opacity:1;" d="M 180.679688 128.566406 L 188.21875 128.566406 L 188.21875 155.519531 L 180.679688 155.519531 Z M 180.679688 128.566406 "/>
</g>
<mask id="mask17">
  <g filter="url(#alpha)">
<rect x="0" y="0" width="467" height="369" style="fill:rgb(0%,0%,0%);fill-opacity:0.2;stroke:none;"/>
  </g>
</mask>
<clipPath id="clip18">
  <rect x="0" y="0" width="467" height="370"/>
</clipPath>
<g id="surface56" clip-path="url(#clip18)">
<path style=" stroke:none;fill-rule:nonzero;fill:rgb(0%,0%,0%);fill-opacity:1;" d="M 164.605469 80.746094 L 170.332031 80.746094 L 170.332031 86.484375 L 164.605469 86.484375 Z M 164.605469 80.746094 "/>
</g>
<mask id="mask18">
  <g filter="url(#alpha)">
<rect x="0" y="0" width="467" height="369" style="fill:rgb(0%,0%,0%);fill-opacity:0.2;stroke:none;"/>
  </g>
</mask>
<clipPath id="clip19">
  <rect x="0" y="0" width="467" height="370"/>
</clipPath>
<g id="surface59" clip-path="url(#clip19)">
<path style=" stroke:none;fill-rule:nonzero;fill:rgb(0%,0%,0%);fill-opacity:1;" d="M 164.605469 91.839844 L 170.332031 91.839844 L 170.332031 97.578125 L 164.605469 97.578125 Z M 164.605469 91.839844 "/>
</g>
<mask id="mask19">
  <g filter="url(#alpha)">
<rect x="0" y="0" width="467" height="369" style="fill:rgb(0%,0%,0%);fill-opacity:0.2;stroke:none;"/>
  </g>
</mask>
<clipPath id="clip20">
  <rect x="0" y="0" width="467" height="370"/>
</clipPath>
<g id="surface62" clip-path="url(#clip20)">
<path style=" stroke:none;fill-rule:nonzero;fill:rgb(0%,0%,0%);fill-opacity:1;" d="M 174.046875 82.839844 L 211.324219 82.839844 L 211.324219 84.398438 L 174.046875 84.398438 Z M 174.046875 82.839844 "/>
</g>
<mask id="mask20">
  <g filter="url(#alpha)">
<rect x="0" y="0" width="467" height="369" style="fill:rgb(0%,0%,0%);fill-opacity:0.2;stroke:none;"/>
  </g>
</mask>
<clipPath id="clip21">
  <rect x="0" y="0" width="467" height="370"/>
</clipPath>
<g id="surface65" clip-path="url(#clip21)">
<path style=" stroke:none;fill-rule:nonzero;fill:rgb(0%,0%,0%);fill-opacity:1;" d="M 174.046875 93.929688 L 211.324219 93.929688 L 211.324219 95.492188 L 174.046875 95.492188 Z M 174.046875 93.929688 "/>
</g>
<mask id="mask21">
  <g filter="url(#alpha)">
<rect x="0" y="0" width="467" height="369" style="fill:rgb(0%,0%,0%);fill-opacity:0.2;stroke:none;"/>
  </g>
</mask>
<clipPath id="clip22">
  <rect x="0" y="0" width="467" height="370"/>
</clipPath>
<g id="surface68" clip-path="url(#clip22)">
<path style=" stroke:none;fill-rule:nonzero;fill:rgb(100%,100%,100%);fill-opacity:1;" d="M 88.902344 182.582031 L 99.917969 168.523438 L 79.332031 152.328125 L 67.074219 167.023438 "/>
</g>
<mask id="mask22">
  <g filter="url(#alpha)">
<rect x="0" y="0" width="467" height="369" style="fill:rgb(0%,0%,0%);fill-opacity:0.2;stroke:none;"/>
  </g>
</mask>
<clipPath id="clip23">
  <rect x="0" y="0" width="467" height="370"/>
</clipPath>
<g id="surface71" clip-path="url(#clip23)">
<path style=" stroke:none;fill-rule:nonzero;fill:rgb(0%,0%,0%);fill-opacity:1;" d="M 288.5625 226.582031 L 322.347656 176.253906 L 325.140625 218.9375 L 304.035156 219.136719 L 304.257812 222.15625 C 304.257812 222.15625 297.003906 224.167969 288.5625 226.582031 Z M 288.5625 226.582031 "/>
</g>
<mask id="mask23">
  <g filter="url(#alpha)">
<rect x="0" y="0" width="467" height="369" style="fill:rgb(0%,0%,0%);fill-opacity:0.2;stroke:none;"/>
  </g>
</mask>
<clipPath id="clip24">
  <rect x="0" y="0" width="467" height="370"/>
</clipPath>
<g id="surface74" clip-path="url(#clip24)">
<path style=" stroke:none;fill-rule:nonzero;fill:rgb(0%,0%,0%);fill-opacity:1;" d="M 65.757812 131.75 L 76.601562 152.132812 L 65.492188 165.441406 L 59.164062 159.210938 L 58.625 150.414062 C 58.625 150.414062 62.015625 145.613281 65.757812 131.75 Z M 65.757812 131.75 "/>
</g>
<mask id="mask24">
  <g filter="url(#alpha)">
<rect x="0" y="0" width="467" height="369" style="fill:rgb(0%,0%,0%);fill-opacity:0.2;stroke:none;"/>
  </g>
</mask>
<clipPath id="clip25">
  <rect x="0" y="0" width="467" height="370"/>
</clipPath>
<g id="surface77" clip-path="url(#clip25)">
<path style=" stroke:none;fill-rule:nonzero;fill:rgb(100%,100%,100%);fill-opacity:1;" d="M 203.792969 114.375 L 211.332031 114.375 L 211.332031 155.515625 L 203.792969 155.515625 Z M 203.792969 114.375 "/>
</g>
<mask id="mask25">
  <g filter="url(#alpha)">
<rect x="0" y="0" width="467" height="369" style="fill:rgb(0%,0%,0%);fill-opacity:0.2;stroke:none;"/>
  </g>
</mask>
<clipPath id="clip26">
  <rect x="0" y="0" width="467" height="370"/>
</clipPath>
<g id="surface80" clip-path="url(#clip26)">
<path style=" stroke:none;fill-rule:nonzero;fill:rgb(0%,0%,0%);fill-opacity:1;" d="M 441.875 291.542969 C 444.945312 289.960938 448.550781 289.753906 451.953125 290.316406 C 453.789062 290.617188 455.691406 291.167969 456.9375 292.542969 C 458.183594 293.914062 458.414062 296.324219 456.984375 297.523438 C 456.140625 298.230469 454.953125 298.332031 453.847656 298.324219 C 451.183594 298.289062 448.226562 297.820312 446.097656 299.429688 C 444.886719 300.34375 444.074219 301.867188 442.625 302.320312 C 441.175781 302.773438 439.601562 301.921875 438.851562 300.636719 C 438.164062 299.300781 438.011719 297.753906 438.425781 296.3125 C 438.769531 294.269531 440.046875 292.507812 441.875 291.542969 Z M 441.875 291.542969 "/>
</g>
<mask id="mask26">
  <g filter="url(#alpha)">
<rect x="0" y="0" width="467" height="369" style="fill:rgb(0%,0%,0%);fill-opacity:0.2;stroke:none;"/>
  </g>
</mask>
<clipPath id="clip27">
  <rect x="0" y="0" width="467" height="370"/>
</clipPath>
<g id="surface83" clip-path="url(#clip27)">
<path style=" stroke:none;fill-rule:nonzero;fill:rgb(0%,0%,0%);fill-opacity:1;" d="M 434.855469 277.960938 C 436.726562 280.660156 440.371094 279.753906 442.058594 278.117188 C 443.746094 276.480469 444.464844 274.109375 445.117188 271.84375 C 446.601562 266.675781 448.097656 261.25 446.992188 255.980469 C 446.730469 254.382812 446.03125 252.886719 444.972656 251.660156 C 443.878906 250.433594 442.222656 249.878906 440.613281 250.207031 C 438.78125 250.691406 437.636719 252.496094 436.8125 254.210938 C 434.382812 259.269531 433.109375 264.804688 433.082031 270.417969 C 433.082031 273.03125 433.382812 275.773438 434.855469 277.933594 "/>
</g>
<mask id="mask27">
  <g filter="url(#alpha)">
<rect x="0" y="0" width="467" height="369" style="fill:rgb(0%,0%,0%);fill-opacity:0.2;stroke:none;"/>
  </g>
</mask>
<clipPath id="clip28">
  <rect x="0" y="0" width="467" height="370"/>
</clipPath>
<g id="surface86" clip-path="url(#clip28)">
<path style=" stroke:none;fill-rule:nonzero;fill:rgb(0%,0%,0%);fill-opacity:1;" d="M 429.703125 281.808594 C 431.738281 279.386719 432.125 275.863281 431.21875 272.828125 C 430.3125 269.792969 428.269531 267.214844 425.910156 265.105469 C 423.132812 262.632812 419.90625 260.722656 416.402344 259.488281 C 415.046875 258.9375 413.585938 258.6875 412.125 258.757812 C 410.644531 258.84375 409.300781 259.652344 408.535156 260.921875 C 407.535156 262.832031 408.496094 265.152344 409.53125 267.042969 C 411.355469 270.390625 413.441406 273.59375 415.769531 276.613281 C 417.648438 279.035156 419.789062 281.417969 422.640625 282.507812 C 425.492188 283.601562 428.460938 283.476562 429.96875 281.492188 "/>
</g>
<mask id="mask28">
  <g filter="url(#alpha)">
<rect x="0" y="0" width="467" height="369" style="fill:rgb(0%,0%,0%);fill-opacity:0.2;stroke:none;"/>
  </g>
</mask>
<clipPath id="clip29">
  <rect x="0" y="0" width="467" height="370"/>
</clipPath>
<g id="surface89" clip-path="url(#clip29)">
<path style=" stroke:none;fill-rule:nonzero;fill:rgb(0%,0%,0%);fill-opacity:1;" d="M 419.789062 318.851562 L 451.140625 318.851562 L 451.140625 326.101562 L 419.789062 326.101562 Z M 419.789062 318.851562 "/>
</g>
<mask id="mask29">
  <g filter="url(#alpha)">
<rect x="0" y="0" width="467" height="369" style="fill:rgb(0%,0%,0%);fill-opacity:0.2;stroke:none;"/>
  </g>
</mask>
<clipPath id="clip30">
  <rect x="0" y="0" width="467" height="370"/>
</clipPath>
<g id="surface92" clip-path="url(#clip30)">
<path style=" stroke:none;fill-rule:nonzero;fill:rgb(0%,0%,0%);fill-opacity:1;" d="M 419.789062 343.785156 L 419.789062 345.796875 L 450.621094 345.796875 L 450.621094 343.785156 Z M 419.789062 343.785156 "/>
</g>
<mask id="mask30">
  <g filter="url(#alpha)">
<rect x="0" y="0" width="467" height="369" style="fill:rgb(0%,0%,0%);fill-opacity:0.2;stroke:none;"/>
  </g>
</mask>
<clipPath id="clip31">
  <rect x="0" y="0" width="467" height="370"/>
</clipPath>
<g id="surface95" clip-path="url(#clip31)">
<path style=" stroke:none;fill-rule:nonzero;fill:rgb(0%,0%,0%);fill-opacity:1;" d="M 202.949219 345.769531 C 202.949219 345.769531 202.949219 334.632812 210.757812 336.28125 C 213.898438 337.007812 217.191406 336.691406 220.136719 335.378906 C 222.785156 334.148438 225.382812 332.398438 225.832031 330.140625 C 225.832031 330.140625 229.476562 339.730469 237.316406 335.097656 L 242.339844 329.257812 C 242.339844 329.257812 244.152344 342.34375 242.339844 345.769531 Z M 202.949219 345.769531 "/>
</g>
</defs>
<g id="surface1">
<path style=" stroke:none;fill-rule:nonzero;fill:rgb(18.431373%,18.039216%,25.490196%);fill-opacity:1;" d="M 159.621094 220.621094 C 159.117188 220.574219 158.609375 220.574219 158.105469 220.621094 C 155.410156 221.164062 154.59375 219.570312 154.550781 217.378906 C 154.515625 215.515625 153.472656 214.878906 151.96875 214.140625 C 150.15625 213.257812 149.21875 214.472656 148.195312 215.300781 C 146.535156 216.65625 145.226562 216.601562 143.945312 214.894531 C 143.558594 214.445312 143.140625 214.023438 142.699219 213.632812 C 139.511719 210.4375 139.511719 210.4375 141.789062 206.5 C 142.695312 204.925781 141.535156 202.175781 139.789062 201.738281 C 135.515625 200.703125 135.515625 200.703125 135.515625 196.21875 C 135.558594 195.710938 135.558594 195.203125 135.515625 194.695312 C 135.121094 192.261719 136.109375 191.222656 138.578125 190.914062 C 142.171875 190.507812 143.277344 187.800781 141.015625 184.878906 C 139.492188 182.90625 139.507812 181.480469 141.503906 180.015625 C 141.953125 179.632812 142.375 179.214844 142.765625 178.769531 C 146.089844 175.449219 145.550781 175.34375 149.347656 177.957031 C 151.226562 179.253906 154.019531 177.957031 154.445312 175.6875 C 155.171875 171.75 155.171875 171.75 159.265625 171.75 C 159.9375 171.804688 160.613281 171.804688 161.289062 171.75 C 163.957031 171.28125 164.847656 172.671875 165.171875 175.0625 C 165.628906 178.4375 168.296875 179.574219 171.011719 177.449219 C 173.054688 175.828125 174.574219 175.871094 176.089844 177.988281 C 176.472656 178.441406 176.890625 178.863281 177.335938 179.253906 C 180.605469 182.558594 180.652344 181.914062 178.089844 185.613281 C 177.484375 186.554688 177.375 187.734375 177.792969 188.773438 C 178.214844 189.8125 179.113281 190.578125 180.203125 190.832031 C 184.152344 191.78125 184.152344 191.78125 184.140625 195.851562 C 184.09375 196.613281 184.09375 197.375 184.140625 198.136719 C 184.398438 200.222656 183.601562 201.113281 181.445312 201.453125 C 177.25 202.117188 176.332031 204.4375 178.835938 207.859375 C 180.082031 209.5625 180.1875 210.820312 178.445312 212.128906 C 177.871094 212.628906 177.328125 213.171875 176.828125 213.75 C 173.867188 216.714844 173.867188 216.714844 170.359375 214.441406 C 168.660156 213.359375 165.804688 214.371094 165.300781 216.257812 C 164.125 220.621094 164.125 220.621094 159.621094 220.621094 Z M 159.949219 184.425781 C 156.792969 184.367188 153.746094 185.578125 151.488281 187.785156 C 149.230469 189.996094 147.949219 193.019531 147.929688 196.179688 C 147.984375 202.675781 153.222656 207.929688 159.703125 207.996094 C 166.1875 208.0625 171.53125 202.917969 171.71875 196.421875 C 171.761719 193.269531 170.546875 190.226562 168.339844 187.976562 C 166.132812 185.726562 163.121094 184.453125 159.972656 184.441406 Z M 159.949219 184.425781 "/>
<use xlink:href="#surface5" mask="url(#mask0)"/>
<path style=" stroke:none;fill-rule:nonzero;fill:rgb(80%,80%,80%);fill-opacity:1;" d="M 91.804688 65.523438 L 225.660156 65.523438 C 234.054688 65.523438 240.859375 72.34375 240.859375 80.753906 L 240.859375 178.238281 L 76.601562 178.238281 L 76.601562 80.753906 C 76.601562 72.34375 83.40625 65.523438 91.804688 65.523438 Z M 91.804688 65.523438 "/>
<path style=" stroke:none;fill-rule:nonzero;fill:rgb(80%,80%,80%);fill-opacity:1;" d="M 76.601562 174.503906 L 240.859375 174.503906 L 240.859375 181.082031 C 240.859375 184.261719 238.292969 186.84375 235.117188 186.855469 L 82.367188 186.855469 C 79.183594 186.855469 76.601562 184.269531 76.601562 181.082031 Z M 76.601562 174.503906 "/>
<use xlink:href="#surface8" mask="url(#mask1)"/>
<path style=" stroke:none;fill-rule:nonzero;fill:rgb(18.431373%,18.039216%,25.490196%);fill-opacity:1;" d="M 126.574219 211.835938 C 127.476562 212.34375 128.269531 212.859375 129.121094 213.242188 C 130.46875 213.859375 130.996094 214.578125 130.355469 216.175781 C 129.660156 217.882812 130.625 219.097656 132.511719 218.878906 C 134.824219 218.617188 134.667969 220.277344 135.128906 221.625 C 135.585938 222.976562 135.808594 223.9375 134.152344 224.695312 C 132.230469 225.570312 132.066406 226.910156 133.640625 228.238281 C 134.792969 229.210938 134.921875 230.054688 134.015625 231.199219 C 133.109375 232.347656 133.046875 234.367188 130.664062 233.496094 C 128.726562 232.789062 127.652344 233.609375 127.871094 235.71875 C 128.121094 238.152344 126.25 237.796875 124.996094 238.265625 C 123.738281 238.738281 122.703125 238.910156 122.003906 237.1875 C 121.253906 235.371094 119.652344 235.183594 118.425781 236.777344 C 117.046875 238.582031 116.015625 237.316406 114.851562 236.707031 C 113.6875 236.09375 112.511719 235.558594 113.234375 233.710938 C 113.957031 231.863281 113.054688 230.636719 111.039062 230.855469 C 108.648438 231.113281 108.925781 229.296875 108.449219 228.035156 C 107.976562 226.769531 107.910156 225.75 109.527344 225.046875 C 111.332031 224.257812 111.515625 222.695312 109.914062 221.464844 C 108.3125 220.234375 109.085938 219.304688 109.808594 218.28125 C 110.53125 217.261719 110.644531 215.457031 112.820312 216.246094 C 114.992188 217.035156 115.742188 216.246094 115.953125 213.78125 C 116.003906 213.128906 116.632812 212.128906 117.179688 211.984375 C 118.4375 211.652344 120.359375 211.152344 121.042969 211.777344 C 123.851562 214.355469 123.71875 214.484375 126.574219 211.835938 Z M 115.125 224.804688 C 115.101562 227.527344 116.722656 229.996094 119.230469 231.054688 C 121.734375 232.109375 124.628906 231.542969 126.558594 229.625 C 128.484375 227.703125 129.0625 224.804688 128.019531 222.289062 C 126.976562 219.773438 124.523438 218.136719 121.804688 218.148438 C 118.164062 218.25 115.238281 221.175781 115.125 224.820312 Z M 115.125 224.804688 "/>
<path style=" stroke:none;fill-rule:nonzero;fill:rgb(80%,80%,80%);fill-opacity:1;" d="M 168.820312 250.542969 L 182.453125 250.542969 L 180.679688 343.964844 L 172.589844 343.964844 Z M 168.820312 250.542969 "/>
<use xlink:href="#surface11" mask="url(#mask2)"/>
<path style=" stroke:none;fill-rule:nonzero;fill:rgb(80%,80%,80%);fill-opacity:1;" d="M 386.503906 250.542969 L 400.132812 250.542969 L 398.359375 343.964844 L 390.269531 343.964844 Z M 386.503906 250.542969 "/>
<use xlink:href="#surface14" mask="url(#mask3)"/>
<path style=" stroke:none;fill-rule:nonzero;fill:rgb(80%,80%,80%);fill-opacity:1;" d="M 283.894531 325.960938 L 325.277344 325.960938 C 319.191406 319.890625 310.828125 316.675781 302.25 317.101562 C 302.25 317.101562 292.332031 317.371094 283.894531 325.960938 Z M 283.894531 325.960938 "/>
<use xlink:href="#surface17" mask="url(#mask4)"/>
<path style=" stroke:none;fill-rule:nonzero;fill:rgb(80%,80%,80%);fill-opacity:1;" d="M 340.425781 172.882812 C 357.039062 174.074219 356.328125 193.992188 356.328125 193.992188 L 342.742188 264.90625 C 341.953125 269.054688 338.332031 272.058594 334.117188 272.058594 L 306.839844 272.058594 L 306.839844 314.859375 L 301.261719 314.859375 L 301.261719 272.058594 L 275.632812 272.058594 L 275.632812 266.117188 L 331.828125 266.117188 C 334.027344 266.117188 335.933594 264.589844 336.417969 262.4375 L 351.820312 194.015625 C 351.820312 194.015625 353.71875 179.324219 340.425781 172.882812 Z M 340.425781 172.882812 "/>
<use xlink:href="#surface20" mask="url(#mask5)"/>
<path style=" stroke:none;fill-rule:nonzero;fill:rgb(80%,80%,80%);fill-opacity:1;" d="M 279.035156 331.128906 C 279.035156 331.128906 285.367188 316.433594 297.222656 317.621094 C 297.222656 317.621094 297.023438 312.589844 304.058594 312.1875 C 304.058594 312.1875 311.890625 311.984375 312.296875 317.421875 C 312.296875 317.421875 324.757812 318.089844 328.777344 330.035156 L 327.773438 331.214844 L 325.960938 330.710938 C 325.960938 330.710938 324.757812 322.65625 312.097656 319.4375 C 312.097656 319.4375 306.066406 317.734375 297.941406 319.234375 C 291.160156 320.441406 285.355469 324.804688 282.304688 330.988281 C 282.183594 331.226562 282.070312 331.46875 281.964844 331.714844 Z M 279.035156 331.128906 "/>
<path style=" stroke:none;fill-rule:nonzero;fill:rgb(80%,80%,80%);fill-opacity:1;" d="M 279.035156 330.324219 C 275.851562 330.324219 273.269531 332.910156 273.269531 336.097656 C 273.269531 339.289062 275.851562 341.875 279.035156 341.875 C 282.21875 341.875 284.800781 339.289062 284.800781 336.097656 C 284.800781 332.910156 282.21875 330.324219 279.035156 330.324219 Z M 279.347656 339.214844 C 277.726562 339.214844 276.410156 337.898438 276.410156 336.269531 C 276.410156 334.644531 277.726562 333.328125 279.347656 333.328125 C 280.972656 333.328125 282.285156 334.644531 282.285156 336.269531 C 282.285156 337.054688 281.976562 337.804688 281.421875 338.355469 C 280.867188 338.910156 280.117188 339.21875 279.335938 339.214844 Z M 279.347656 339.214844 "/>
<path style=" stroke:none;fill-rule:nonzero;fill:rgb(80%,80%,80%);fill-opacity:1;" d="M 335.457031 174.503906 C 335.457031 174.503906 345.417969 171.464844 349.679688 180.054688 C 353.089844 185.851562 353.84375 192.839844 351.753906 199.238281 C 348.222656 210 338.273438 268.671875 338.273438 268.671875 L 308.367188 269.753906 Z M 335.457031 174.503906 "/>
<path style=" stroke:none;fill-rule:nonzero;fill:rgb(80%,80%,80%);fill-opacity:1;" d="M 340.640625 163.964844 L 343.546875 164.363281 C 345.695312 164.65625 347.753906 163.386719 348.460938 161.332031 L 353.679688 146.097656 C 354.070312 144.957031 353.925781 143.695312 353.285156 142.675781 C 352.640625 141.652344 351.570312 140.976562 350.375 140.835938 L 346.394531 140.371094 Z M 340.640625 163.964844 "/>
<use xlink:href="#surface23" mask="url(#mask6)"/>
<path style=" stroke:none;fill-rule:nonzero;fill:rgb(80%,80%,80%);fill-opacity:1;" d="M 340.144531 162.691406 L 336.660156 180.679688 L 330.765625 179.371094 L 334.386719 161.960938 Z M 340.144531 162.691406 "/>
<path style=" stroke:none;fill-rule:nonzero;fill:rgb(97.647059%,70.588235%,60%);fill-opacity:1;" d="M 226.796875 325.304688 L 224.925781 334.699219 L 234.304688 338.730469 L 242.339844 332.820312 L 242.339844 323.289062 Z M 226.796875 325.304688 "/>
<path style=" stroke:none;fill-rule:nonzero;fill:rgb(97.647059%,70.588235%,60%);fill-opacity:1;" d="M 260.027344 325.238281 L 259.75 332.300781 L 265.453125 337.519531 L 272.085938 337.519531 L 276.101562 331.007812 L 274.898438 323.289062 Z M 260.027344 325.238281 "/>
<path style=" stroke:none;fill-rule:nonzero;fill:rgb(18.431373%,18.039216%,25.490196%);fill-opacity:1;" d="M 224.925781 326.914062 L 238.117188 255.394531 C 238.390625 253.902344 239.6875 252.820312 241.199219 252.820312 L 269.996094 252.820312 L 242.339844 326.914062 Z M 224.925781 326.914062 "/>
<use xlink:href="#surface26" mask="url(#mask7)"/>
<path style=" stroke:none;fill-rule:nonzero;fill:rgb(24.705882%,23.921569%,33.72549%);fill-opacity:1;" d="M 146.679688 238.589844 L 424.691406 238.589844 C 427.351562 238.589844 429.511719 240.753906 429.511719 243.421875 L 429.511719 243.425781 C 429.511719 246.09375 427.351562 248.257812 424.691406 248.257812 L 146.679688 248.257812 C 144.015625 248.257812 141.859375 246.09375 141.859375 243.425781 L 141.859375 243.421875 C 141.859375 240.753906 144.015625 238.589844 146.679688 238.589844 Z M 146.679688 238.589844 "/>
<path style=" stroke:none;fill-rule:nonzero;fill:rgb(18.431373%,18.039216%,25.490196%);fill-opacity:1;" d="M 146.679688 238.589844 L 424.691406 238.589844 C 427.351562 238.589844 429.511719 240.753906 429.511719 243.421875 L 429.511719 243.425781 C 429.511719 246.09375 427.351562 248.257812 424.691406 248.257812 L 146.679688 248.257812 C 144.015625 248.257812 141.859375 246.09375 141.859375 243.425781 L 141.859375 243.421875 C 141.859375 240.753906 144.015625 238.589844 146.679688 238.589844 Z M 146.679688 238.589844 "/>
<use xlink:href="#surface29" mask="url(#mask8)"/>
<path style=" stroke:none;fill-rule:nonzero;fill:rgb(80%,80%,80%);fill-opacity:1;" d="M 160.140625 248.257812 L 411.222656 248.257812 C 412.480469 248.257812 413.5 249.277344 413.5 250.535156 L 413.5 250.542969 C 413.5 251.800781 412.480469 252.820312 411.222656 252.820312 L 160.140625 252.820312 C 158.882812 252.820312 157.863281 251.800781 157.863281 250.542969 L 157.863281 250.535156 C 157.863281 249.277344 158.882812 248.257812 160.140625 248.257812 Z M 160.140625 248.257812 "/>
<path style=" stroke:none;fill-rule:nonzero;fill:rgb(80%,80%,80%);fill-opacity:1;" d="M 312.878906 138.59375 L 346.394531 140.371094 C 347.464844 140.425781 348.449219 140.976562 349.0625 141.859375 C 349.671875 142.742188 349.839844 143.859375 349.515625 144.882812 L 344.269531 161.539062 C 343.777344 163.097656 342.265625 164.101562 340.640625 163.949219 L 310.875 161.128906 Z M 312.878906 138.59375 "/>
<path style=" stroke:none;fill-rule:nonzero;fill:rgb(97.647059%,70.588235%,60%);fill-opacity:1;" d="M 69.910156 323.828125 L 69.910156 336.308594 L 75.9375 338.125 L 80.757812 335.707031 L 80.757812 323.492188 Z M 69.910156 323.828125 "/>
<path style=" stroke:none;fill-rule:nonzero;fill:rgb(97.647059%,70.588235%,60%);fill-opacity:1;" d="M 27.304688 323.492188 L 27.304688 335.503906 L 29.917969 338.324219 L 34.339844 334.5 L 37.355469 323.492188 Z M 27.304688 323.492188 "/>
<path style=" stroke:none;fill-rule:nonzero;fill:rgb(18.431373%,18.039216%,25.490196%);fill-opacity:1;" d="M 25.09375 325.4375 C 25.09375 325.4375 46.597656 178.054688 56.445312 167.789062 L 59.554688 165.503906 L 90.011719 164.871094 C 90.011719 164.871094 97.644531 197.789062 94.628906 231.410156 C 94.628906 231.410156 86.992188 314.5 84.582031 324.96875 L 67.328125 324.96875 L 74.160156 219.132812 L 74.160156 214.902344 L 71.34375 214.902344 C 71.34375 214.902344 43.382812 321.8125 39.765625 326.242188 Z M 25.09375 325.4375 "/>
<use xlink:href="#surface32" mask="url(#mask9)"/>
<path style=" stroke:none;fill-rule:nonzero;fill:rgb(80%,80%,80%);fill-opacity:1;" d="M 58.347656 177.480469 L 53.582031 183.199219 L 52.492188 184.839844 L 73.925781 201.679688 L 82.136719 191.214844 "/>
<use xlink:href="#surface35" mask="url(#mask10)"/>
<path style=" stroke:none;fill-rule:nonzero;fill:rgb(24.705882%,23.921569%,33.72549%);fill-opacity:1;" d="M 56.585938 176.125 L 51.824219 181.816406 L 73.527344 198.859375 L 80.269531 190.53125 "/>
<path style=" stroke:none;fill-rule:nonzero;fill:rgb(18.431373%,18.039216%,25.490196%);fill-opacity:1;" d="M 133.425781 145.902344 C 124.144531 149.976562 113.398438 148.746094 105.273438 142.679688 C 97.148438 136.613281 92.898438 126.648438 94.140625 116.574219 C 95.382812 106.503906 101.925781 97.871094 111.277344 93.96875 Z M 133.425781 145.902344 "/>
<use xlink:href="#surface38" mask="url(#mask11)"/>
<use xlink:href="#surface41" mask="url(#mask12)"/>
<use xlink:href="#surface44" mask="url(#mask13)"/>
<use xlink:href="#surface47" mask="url(#mask14)"/>
<use xlink:href="#surface50" mask="url(#mask15)"/>
<path style=" stroke:none;fill-rule:nonzero;fill:rgb(18.431373%,18.039216%,25.490196%);fill-opacity:1;" d="M 168.820312 142.035156 L 176.359375 142.035156 L 176.359375 155.519531 L 168.820312 155.519531 Z M 168.820312 142.035156 "/>
<path style=" stroke:none;fill-rule:nonzero;fill:rgb(18.431373%,18.039216%,25.490196%);fill-opacity:1;" d="M 180.679688 128.566406 L 188.21875 128.566406 L 188.21875 155.519531 L 180.679688 155.519531 Z M 180.679688 128.566406 "/>
<use xlink:href="#surface53" mask="url(#mask16)"/>
<path style=" stroke:none;fill-rule:nonzero;fill:rgb(18.431373%,18.039216%,25.490196%);fill-opacity:1;" d="M 191.734375 126.050781 L 199.273438 126.050781 L 199.273438 155.515625 L 191.734375 155.515625 Z M 191.734375 126.050781 "/>
<path style=" stroke:none;fill-rule:nonzero;fill:rgb(18.431373%,18.039216%,25.490196%);fill-opacity:1;" d="M 203.792969 114.375 L 211.332031 114.375 L 211.332031 155.515625 L 203.792969 155.515625 Z M 203.792969 114.375 "/>
<path style=" stroke:none;fill-rule:nonzero;fill:rgb(18.431373%,18.039216%,25.490196%);fill-opacity:1;" d="M 167.183594 135.875 L 166.847656 135.550781 L 179.375 122.726562 L 192.34375 122.726562 L 203.597656 105.789062 L 203.984375 106.046875 L 192.597656 123.195312 L 179.574219 123.195312 Z M 167.183594 135.875 "/>
<path style=" stroke:none;fill-rule:nonzero;fill:rgb(18.431373%,18.039216%,25.490196%);fill-opacity:1;" d="M 167.601562 135.972656 C 167.601562 136.542969 167.140625 137.003906 166.574219 137.003906 C 166.003906 137.003906 165.542969 136.542969 165.542969 135.972656 C 165.542969 135.402344 166.003906 134.941406 166.574219 134.941406 C 167.140625 134.941406 167.601562 135.402344 167.601562 135.972656 Z M 167.601562 135.972656 "/>
<path style=" stroke:none;fill-rule:nonzero;fill:rgb(18.431373%,18.039216%,25.490196%);fill-opacity:1;" d="M 202.25 104.84375 L 204.929688 107.058594 L 204.929688 104.375 Z M 202.25 104.84375 "/>
<use xlink:href="#surface56" mask="url(#mask17)"/>
<use xlink:href="#surface59" mask="url(#mask18)"/>
<use xlink:href="#surface62" mask="url(#mask19)"/>
<use xlink:href="#surface65" mask="url(#mask20)"/>
<path style=" stroke:none;fill-rule:nonzero;fill:rgb(18.431373%,18.039216%,25.490196%);fill-opacity:1;" d="M 44.21875 97.578125 L 39.664062 92.226562 C 38.878906 91.304688 37.730469 90.769531 36.519531 90.769531 L 18.722656 90.769531 C 13.324219 90.769531 8.945312 86.386719 8.941406 80.976562 L 8.941406 77.832031 C 8.941406 72.285156 13.429688 67.785156 18.964844 67.785156 L 34.667969 67.785156 C 37.199219 67.785156 39.628906 68.789062 41.421875 70.582031 C 43.210938 72.375 44.21875 74.808594 44.21875 77.34375 Z M 44.21875 97.578125 "/>
<path style=" stroke:none;fill-rule:nonzero;fill:rgb(18.431373%,18.039216%,25.490196%);fill-opacity:1;" d="M 50.796875 61.855469 L 55.652344 56.507812 C 56.515625 55.570312 57.730469 55.042969 59 55.054688 L 77.875 55.054688 C 83.625 55.054688 88.28125 50.664062 88.28125 45.253906 L 88.28125 42.109375 C 88.28125 36.566406 83.511719 32.070312 77.621094 32.070312 L 60.9375 32.070312 C 55.328125 32.070312 50.789062 36.34375 50.789062 41.621094 Z M 50.796875 61.855469 "/>
<path style=" stroke:none;fill-rule:nonzero;fill:rgb(100%,100%,100%);fill-opacity:1;" d="M 24.417969 76.117188 L 27.800781 76.117188 L 27.800781 84.398438 L 24.417969 84.398438 Z M 24.417969 76.117188 "/>
<path style=" stroke:none;fill-rule:nonzero;fill:rgb(100%,100%,100%);fill-opacity:1;" d="M 29.789062 73.433594 L 33.171875 73.433594 L 33.171875 84.398438 L 29.789062 84.398438 Z M 29.789062 73.433594 "/>
<path style=" stroke:none;fill-rule:nonzero;fill:rgb(100%,100%,100%);fill-opacity:1;" d="M 65.054688 43.03125 C 65.054688 44.40625 63.945312 45.515625 62.574219 45.515625 C 61.207031 45.515625 60.09375 44.40625 60.09375 43.03125 C 60.09375 41.660156 61.207031 40.546875 62.574219 40.546875 C 63.945312 40.546875 65.054688 41.660156 65.054688 43.03125 Z M 65.054688 43.03125 "/>
<path style=" stroke:none;fill-rule:nonzero;fill:rgb(100%,100%,100%);fill-opacity:1;" d="M 72.027344 43.03125 C 72.027344 44.40625 70.917969 45.515625 69.546875 45.515625 C 68.179688 45.515625 67.066406 44.40625 67.066406 43.03125 C 67.066406 41.660156 68.179688 40.546875 69.546875 40.546875 C 70.917969 40.546875 72.027344 41.660156 72.027344 43.03125 Z M 72.027344 43.03125 "/>
<path style=" stroke:none;fill-rule:nonzero;fill:rgb(100%,100%,100%);fill-opacity:1;" d="M 79.082031 43.03125 C 79.082031 44.40625 77.972656 45.515625 76.601562 45.515625 C 75.230469 45.515625 74.121094 44.40625 74.121094 43.03125 C 74.121094 41.660156 75.230469 40.546875 76.601562 40.546875 C 77.972656 40.546875 79.082031 41.660156 79.082031 43.03125 Z M 79.082031 43.03125 "/>
<path style=" stroke:none;fill-rule:nonzero;fill:rgb(97.647059%,70.588235%,60%);fill-opacity:1;" d="M 80.351562 105.917969 C 80.484375 107.792969 81.023438 120.847656 81.023438 120.847656 L 78.480469 121.878906 L 68.292969 117.324219 L 68.292969 111.101562 C 68.164062 108.226562 67.023438 108.257812 67.023438 108.257812 L 63.621094 108.257812 L 64.042969 104.535156 L 67.3125 103.804688 Z M 80.351562 105.917969 "/>
<path style=" stroke:none;fill-rule:nonzero;fill:rgb(97.647059%,70.588235%,60%);fill-opacity:1;" d="M 67.769531 101.835938 C 67.769531 104.140625 65.902344 106.011719 63.601562 106.011719 C 61.296875 106.011719 59.433594 104.140625 59.433594 101.835938 C 59.433594 99.527344 61.296875 97.65625 63.601562 97.65625 C 65.902344 97.65625 67.769531 99.527344 67.769531 101.835938 Z M 67.769531 101.835938 "/>
<path style=" stroke:none;fill-rule:nonzero;fill:rgb(0%,44.313725%,94.901961%);fill-opacity:1;" d="M 96.273438 145.277344 C 95.972656 139.441406 88.835938 121.878906 88.835938 121.878906 C 87.21875 118.097656 81.003906 118.300781 81.003906 118.300781 L 81.003906 119.398438 C 77.582031 122.316406 68.269531 115.972656 68.269531 115.972656 C 65.191406 119.214844 58.089844 121.867188 58.089844 121.867188 C 49.648438 124.742188 40.203125 155.503906 40.203125 155.503906 C 37.992188 162.21875 42.015625 164.898438 42.015625 164.898438 L 67.898438 184.828125 L 74.746094 174.503906 L 55.285156 155.515625 L 58.605469 150.414062 L 59.554688 165.503906 L 97.746094 164.710938 C 97.746094 164.710938 109.972656 155.105469 114.125 145.574219 L 105.8125 137.003906 Z M 96.273438 145.277344 "/>
<path style=" stroke:none;fill-rule:nonzero;fill:rgb(0%,44.313725%,94.901961%);fill-opacity:1;" d="M 68.101562 343.964844 L 68.101562 333.289062 C 68.101562 332.957031 68.371094 332.6875 68.703125 332.6875 L 70.914062 332.6875 L 75.335938 336.714844 L 80.757812 334.300781 L 92.023438 341.566406 C 92.394531 341.800781 92.617188 342.207031 92.617188 342.644531 C 92.621094 342.992188 92.484375 343.324219 92.238281 343.570312 C 91.996094 343.816406 91.664062 343.953125 91.320312 343.953125 L 74.332031 343.953125 L 73.628906 342.121094 C 73.457031 341.652344 72.984375 341.363281 72.488281 341.425781 C 71.933594 341.480469 71.515625 341.949219 71.515625 342.503906 L 71.515625 343.941406 Z M 68.101562 343.964844 "/>
<path style=" stroke:none;fill-rule:nonzero;fill:rgb(0%,44.313725%,94.901961%);fill-opacity:1;" d="M 21.273438 346.179688 C 21.273438 346.179688 19.65625 344.96875 21.273438 342.753906 L 27.304688 332.6875 L 34.851562 332.6875 L 36.128906 343.160156 C 36.128906 343.160156 36.933594 345.574219 33.917969 346.984375 L 29.75 348.878906 C 28.214844 349.582031 26.429688 349.460938 25.003906 348.550781 Z M 21.273438 346.179688 "/>
<path style=" stroke:none;fill-rule:nonzero;fill:rgb(97.647059%,70.588235%,60%);fill-opacity:1;" d="M 106.734375 137.949219 L 113.679688 132.191406 C 113.679688 132.191406 114.109375 128.355469 116.753906 127.917969 L 121.640625 122.347656 C 121.75 122.222656 121.902344 122.148438 122.066406 122.140625 C 122.230469 122.132812 122.390625 122.191406 122.507812 122.304688 C 122.707031 122.484375 122.761719 122.773438 122.644531 123.011719 L 119.996094 128.582031 C 120.796875 129.195312 121.449219 129.980469 121.90625 130.878906 C 121.90625 130.878906 123.769531 132.355469 122.839844 134.121094 L 113.410156 144.855469 Z M 106.734375 137.949219 "/>
<path style=" stroke:none;fill-rule:nonzero;fill:rgb(80%,80%,80%);fill-opacity:1;" d="M 88.902344 182.582031 L 99.917969 168.523438 L 79.332031 152.328125 L 67.074219 167.023438 "/>
<use xlink:href="#surface68" mask="url(#mask21)"/>
<path style=" stroke:none;fill-rule:nonzero;fill:rgb(18.431373%,18.039216%,25.490196%);fill-opacity:1;" d="M 272.492188 233.84375 L 269.996094 233.84375 L 271.550781 238.589844 L 297.710938 238.589844 L 297.710938 233.84375 Z M 272.492188 233.84375 "/>
<path style=" stroke:none;fill-rule:nonzero;fill:rgb(0%,44.313725%,94.901961%);fill-opacity:1;" d="M 242.339844 195.171875 L 256.40625 179.871094 L 274.328125 198.390625 C 274.328125 198.390625 286.558594 160.539062 297.710938 162.734375 L 302.832031 159.109375 C 302.832031 159.109375 302.832031 166.132812 308.257812 164.144531 C 308.257812 164.144531 311.074219 163.152344 317.90625 155.5 L 324.332031 157.910156 C 324.332031 157.910156 350.0625 163.613281 349.054688 196.699219 C 349.054688 196.699219 346.640625 228.914062 341.417969 238.574219 L 305.441406 238.574219 L 304.035156 219.125 L 324.636719 218.925781 C 324.636719 218.925781 321.320312 180.816406 322.527344 174.5 L 325.339844 233.835938 L 272.492188 233.835938 C 272.492188 233.835938 248.597656 210.875 242.339844 195.171875 Z M 242.339844 195.171875 "/>
<use xlink:href="#surface71" mask="url(#mask22)"/>
<path style=" stroke:none;fill-rule:nonzero;fill:rgb(97.647059%,70.588235%,60%);fill-opacity:1;" d="M 274.328125 233.84375 C 274.328125 233.84375 275.132812 229.800781 304.257812 222.152344 L 305.441406 238.589844 L 297.710938 238.589844 L 297.710938 233.84375 Z M 274.328125 233.84375 "/>
<path style=" stroke:none;fill-rule:nonzero;fill:rgb(97.647059%,70.588235%,60%);fill-opacity:1;" d="M 243.402344 194.015625 L 226.867188 167.585938 C 226.867188 167.585938 226.667969 165.574219 228.875 165.773438 C 228.875 165.773438 229.476562 163.359375 231.289062 163.558594 C 231.289062 163.558594 232.492188 160.316406 234.304688 161.144531 L 229.917969 151.089844 C 229.667969 150.503906 229.875 149.816406 230.410156 149.46875 C 231.007812 149.085938 231.804688 149.253906 232.195312 149.847656 C 234.976562 154.054688 245.066406 169.441406 245.757812 172.21875 L 255.070312 181.339844 Z M 243.402344 194.015625 "/>
<path style=" stroke:none;fill-rule:nonzero;fill:rgb(0%,44.313725%,94.901961%);fill-opacity:1;" d="M 202.949219 345.769531 C 202.949219 345.769531 202.949219 334.632812 210.757812 336.28125 C 213.898438 337.007812 217.191406 336.691406 220.136719 335.378906 C 222.785156 334.148438 225.382812 332.398438 225.832031 330.140625 C 225.832031 330.140625 229.476562 339.730469 237.316406 335.097656 L 242.339844 329.257812 C 242.339844 329.257812 244.152344 342.34375 242.339844 345.769531 Z M 202.949219 345.769531 "/>
<path style=" stroke:none;fill-rule:nonzero;fill:rgb(0%,44.313725%,94.901961%);fill-opacity:1;" d="M 257.816406 331.007812 C 257.816406 331.007812 257.710938 333.441406 254.730469 335.480469 C 252.601562 336.875 249.988281 337.316406 247.519531 336.703125 C 244.441406 335.996094 239.125 336.285156 237.339844 345.773438 L 277.132812 345.773438 L 276.101562 331.007812 C 276.101562 331.007812 270.675781 339.328125 265.453125 336.109375 Z M 257.816406 331.007812 "/>
<path style=" stroke:none;fill-rule:nonzero;fill:rgb(24.705882%,23.921569%,33.72549%);fill-opacity:1;" d="M 233.855469 326.988281 L 233.410156 326.84375 L 253.484375 264.84375 L 253.925781 264.988281 Z M 233.855469 326.988281 "/>
<path style=" stroke:none;fill-rule:nonzero;fill:rgb(18.431373%,18.039216%,25.490196%);fill-opacity:1;" d="M 297.640625 97.316406 L 293.179688 92.261719 C 292.289062 91.25 291.007812 90.671875 289.664062 90.671875 L 278.339844 90.671875 C 273.34375 90.671875 269.296875 86.617188 269.296875 81.613281 C 269.296875 76.609375 273.34375 72.550781 278.339844 72.550781 L 288.105469 72.550781 C 293.371094 72.566406 297.632812 76.84375 297.640625 82.121094 Z M 297.640625 97.316406 "/>
<use xlink:href="#surface74" mask="url(#mask23)"/>
<use xlink:href="#surface77" mask="url(#mask24)"/>
<path style=" stroke:none;fill-rule:nonzero;fill:rgb(18.431373%,18.039216%,25.490196%);fill-opacity:1;" d="M 163.683594 155.527344 L 215.945312 155.527344 L 215.945312 156.910156 L 163.683594 156.910156 Z M 163.683594 155.527344 "/>
<path style=" stroke:none;fill-rule:nonzero;fill:rgb(97.647059%,70.588235%,60%);fill-opacity:1;" d="M 68.589844 183.808594 L 80.636719 190.746094 C 80.636719 190.746094 84.460938 192.609375 88.003906 189.945312 C 88.695312 189.417969 89.136719 188.621094 89.207031 187.75 C 89.277344 186.878906 88.972656 186.019531 88.375 185.386719 C 87.816406 184.8125 87.207031 184.28125 86.5625 183.808594 C 86.5625 183.808594 88.984375 184.574219 89.089844 183.269531 C 89.105469 182.914062 88.957031 182.570312 88.6875 182.339844 C 88.148438 181.886719 86.957031 181.0625 84.433594 180.382812 C 82.78125 179.925781 81.226562 179.179688 79.835938 178.171875 L 74.746094 174.503906 Z M 68.589844 183.808594 "/>
<path style=" stroke:none;fill-rule:nonzero;fill:rgb(24.705882%,23.921569%,33.72549%);fill-opacity:1;" d="M 87.53125 181.527344 L 99.9375 166.222656 L 78.90625 149.441406 L 65.515625 165.441406 L 74.746094 174.503906 C 74.746094 174.503906 81.121094 179.085938 82.136719 179.519531 Z M 87.53125 181.527344 "/>
<path style=" stroke:none;fill-rule:nonzero;fill:rgb(100%,100%,100%);fill-opacity:1;" d="M 280.109375 81.6875 C 280.109375 82.703125 279.289062 83.523438 278.273438 83.523438 C 277.261719 83.523438 276.441406 82.703125 276.441406 81.6875 C 276.441406 80.671875 277.261719 79.851562 278.273438 79.851562 C 279.289062 79.851562 280.109375 80.671875 280.109375 81.6875 Z M 280.109375 81.6875 "/>
<path style=" stroke:none;fill-rule:nonzero;fill:rgb(100%,100%,100%);fill-opacity:1;" d="M 285.257812 81.6875 C 285.257812 82.703125 284.4375 83.523438 283.425781 83.523438 C 282.414062 83.523438 281.589844 82.703125 281.589844 81.6875 C 281.589844 80.671875 282.414062 79.851562 283.425781 79.851562 C 284.4375 79.851562 285.257812 80.671875 285.257812 81.6875 Z M 285.257812 81.6875 "/>
<path style=" stroke:none;fill-rule:nonzero;fill:rgb(100%,100%,100%);fill-opacity:1;" d="M 290.46875 81.6875 C 290.46875 82.703125 289.648438 83.523438 288.632812 83.523438 C 287.621094 83.523438 286.800781 82.703125 286.800781 81.6875 C 286.800781 80.671875 287.621094 79.851562 288.632812 79.851562 C 289.648438 79.851562 290.46875 80.671875 290.46875 81.6875 Z M 290.46875 81.6875 "/>
<path style=" stroke:none;fill-rule:nonzero;fill:rgb(18.431373%,18.039216%,25.490196%);fill-opacity:1;" d="M 197.058594 196.714844 L 211.324219 238.589844 L 271.550781 238.589844 L 257.878906 196.714844 Z M 197.058594 196.714844 "/>
<path style=" stroke:none;fill-rule:nonzero;fill:rgb(18.431373%,18.039216%,25.490196%);fill-opacity:1;" d="M 251.714844 255.34375 L 259.222656 326.914062 L 276.640625 326.914062 L 278.796875 266.242188 L 313.632812 266.242188 C 313.632812 266.242188 326.226562 267.046875 335.605469 252.820312 L 253.992188 252.820312 C 253.34375 252.816406 252.726562 253.089844 252.289062 253.574219 C 251.855469 254.054688 251.648438 254.699219 251.714844 255.34375 Z M 251.714844 255.34375 "/>
<path style=" stroke:none;fill-rule:nonzero;fill:rgb(24.705882%,23.921569%,33.72549%);fill-opacity:1;" d="M 267.695312 326.929688 L 263.378906 267.007812 C 263.378906 266.878906 263.773438 256.144531 274.300781 256.144531 L 309.636719 256.144531 C 309.703125 256.144531 316.921875 255.84375 318.0625 252.742188 L 318.5 252.902344 C 317.253906 256.300781 309.957031 256.605469 309.644531 256.613281 L 274.328125 256.613281 C 264.257812 256.613281 263.886719 266.570312 263.875 267 L 268.160156 326.898438 Z M 267.695312 326.929688 "/>
<path style=" stroke:none;fill-rule:nonzero;fill:rgb(80%,80%,80%);fill-opacity:1;" d="M 327.902344 330.324219 C 324.71875 330.324219 322.136719 332.910156 322.136719 336.097656 C 322.136719 339.289062 324.71875 341.875 327.902344 341.875 C 331.085938 341.875 333.667969 339.289062 333.667969 336.097656 C 333.667969 332.910156 331.085938 330.324219 327.902344 330.324219 Z M 327.902344 339.214844 C 326.28125 339.214844 324.964844 337.898438 324.964844 336.269531 C 324.964844 334.644531 326.28125 333.328125 327.902344 333.328125 C 329.527344 333.328125 330.84375 334.644531 330.84375 336.269531 C 330.84375 337.898438 329.527344 339.214844 327.902344 339.214844 Z M 327.902344 339.214844 "/>
<path style=" stroke:none;fill-rule:nonzero;fill:rgb(18.431373%,18.039216%,25.490196%);fill-opacity:1;" d="M 441.875 291.542969 C 444.945312 289.960938 448.550781 289.753906 451.953125 290.316406 C 453.789062 290.617188 455.691406 291.167969 456.9375 292.542969 C 458.183594 293.914062 458.414062 296.324219 456.984375 297.523438 C 456.140625 298.230469 454.953125 298.332031 453.847656 298.324219 C 451.183594 298.289062 448.226562 297.820312 446.097656 299.429688 C 444.886719 300.34375 444.074219 301.867188 442.625 302.320312 C 441.175781 302.773438 439.601562 301.921875 438.851562 300.636719 C 438.164062 299.300781 438.011719 297.753906 438.425781 296.3125 C 438.769531 294.269531 440.046875 292.507812 441.875 291.542969 Z M 441.875 291.542969 "/>
<use xlink:href="#surface80" mask="url(#mask25)"/>
<path style=" stroke:none;fill-rule:nonzero;fill:rgb(18.431373%,18.039216%,25.490196%);fill-opacity:1;" d="M 434.855469 277.960938 C 436.726562 280.660156 440.371094 279.753906 442.058594 278.117188 C 443.746094 276.480469 444.464844 274.109375 445.117188 271.84375 C 446.601562 266.675781 448.097656 261.25 446.992188 255.980469 C 446.730469 254.382812 446.03125 252.886719 444.972656 251.660156 C 443.878906 250.433594 442.222656 249.878906 440.613281 250.207031 C 438.78125 250.691406 437.636719 252.496094 436.8125 254.210938 C 434.382812 259.269531 433.109375 264.804688 433.082031 270.417969 C 433.082031 273.03125 433.382812 275.773438 434.855469 277.933594 "/>
<use xlink:href="#surface83" mask="url(#mask26)"/>
<path style=" stroke:none;fill-rule:nonzero;fill:rgb(18.431373%,18.039216%,25.490196%);fill-opacity:1;" d="M 429.703125 281.808594 C 431.738281 279.386719 432.125 275.863281 431.21875 272.828125 C 430.3125 269.792969 428.269531 267.214844 425.910156 265.105469 C 423.132812 262.632812 419.90625 260.722656 416.402344 259.488281 C 415.046875 258.9375 413.585938 258.6875 412.125 258.757812 C 410.644531 258.84375 409.300781 259.652344 408.535156 260.921875 C 407.535156 262.832031 408.496094 265.152344 409.53125 267.042969 C 411.355469 270.390625 413.441406 273.59375 415.769531 276.613281 C 417.648438 279.035156 419.789062 281.417969 422.640625 282.507812 C 425.492188 283.601562 428.460938 283.476562 429.96875 281.492188 "/>
<use xlink:href="#surface86" mask="url(#mask27)"/>
<path style=" stroke:none;fill-rule:nonzero;fill:rgb(18.431373%,18.039216%,25.490196%);fill-opacity:1;" d="M 434.726562 318.425781 C 434.824219 318.027344 434.882812 317.617188 434.898438 317.203125 C 434.984375 316.320312 435.09375 315.207031 435.222656 313.882812 C 435.382812 312.25 435.632812 310.625 435.964844 309.019531 C 436.402344 307.054688 436.996094 305.132812 437.734375 303.261719 C 438.464844 301.394531 439.453125 299.640625 440.671875 298.050781 C 441.664062 296.757812 442.933594 295.703125 444.382812 294.960938 C 445.367188 294.472656 446.421875 294.144531 447.503906 293.984375 C 447.914062 293.96875 448.320312 293.910156 448.71875 293.8125 C 448.308594 293.761719 447.894531 293.761719 447.484375 293.8125 C 446.363281 293.902344 445.269531 294.191406 444.25 294.664062 C 442.722656 295.386719 441.382812 296.453125 440.332031 297.78125 C 439.0625 299.394531 438.039062 301.183594 437.292969 303.097656 C 436.539062 304.996094 435.949219 306.953125 435.535156 308.949219 C 435.21875 310.582031 435.003906 312.234375 434.886719 313.894531 C 434.777344 315.304688 434.742188 316.449219 434.71875 317.238281 C 434.683594 317.632812 434.683594 318.03125 434.726562 318.425781 Z M 434.726562 318.425781 "/>
<path style=" stroke:none;fill-rule:nonzero;fill:rgb(18.431373%,18.039216%,25.490196%);fill-opacity:1;" d="M 434.957031 315.863281 C 434.988281 315.6875 434.996094 315.503906 434.988281 315.324219 C 434.988281 314.902344 434.988281 314.367188 434.988281 313.703125 C 434.988281 312.300781 434.988281 310.269531 435.058594 307.761719 C 435.183594 302.742188 435.597656 297.34375 436.449219 289.734375 C 437.238281 282.574219 438.296875 274.25 439.410156 268.828125 C 439.652344 267.597656 439.890625 266.492188 440.117188 265.519531 C 440.34375 264.546875 440.523438 263.707031 440.699219 263.027344 C 440.878906 262.347656 440.980469 261.871094 441.078125 261.457031 C 441.132812 261.28125 441.164062 261.097656 441.175781 260.914062 C 441.089844 261.085938 441.023438 261.269531 440.980469 261.457031 L 440.511719 263.003906 C 440.300781 263.679688 440.089844 264.511719 439.847656 265.480469 C 439.605469 266.445312 439.308594 267.554688 439.066406 268.78125 C 437.683594 275.1875 436.640625 281.664062 435.949219 288.183594 C 435.113281 295.804688 434.742188 302.769531 434.703125 307.78125 C 434.675781 310.296875 434.703125 312.332031 434.796875 313.726562 C 434.832031 314.382812 434.867188 314.917969 434.890625 315.347656 C 434.890625 315.519531 434.914062 315.695312 434.957031 315.863281 Z M 434.957031 315.863281 "/>
<path style=" stroke:none;fill-rule:nonzero;fill:rgb(18.431373%,18.039216%,25.490196%);fill-opacity:1;" d="M 434.988281 302.472656 C 435.03125 301.910156 435.03125 301.34375 434.988281 300.78125 C 434.925781 299.699219 434.773438 298.128906 434.449219 296.203125 C 434.082031 293.953125 433.582031 291.726562 432.960938 289.53125 C 432.238281 286.835938 431.308594 284.199219 430.179688 281.644531 C 428.25 276.929688 425.480469 272.609375 422.003906 268.890625 C 421.402344 268.25 420.757812 267.652344 420.078125 267.101562 C 419.789062 266.847656 419.539062 266.597656 419.257812 266.402344 L 418.515625 265.863281 C 418.066406 265.519531 417.589844 265.21875 417.089844 264.957031 C 417.015625 265.0625 419.109375 266.296875 421.746094 269.117188 C 425.105469 272.867188 427.804688 277.164062 429.722656 281.824219 C 430.824219 284.363281 431.761719 286.976562 432.519531 289.640625 C 433.246094 292.089844 433.734375 294.347656 434.101562 296.242188 C 434.464844 298.140625 434.640625 299.699219 434.769531 300.777344 C 434.796875 301.347656 434.871094 301.914062 434.988281 302.472656 Z M 434.988281 302.472656 "/>
<path style=" stroke:none;fill-rule:nonzero;fill:rgb(18.431373%,18.039216%,25.490196%);fill-opacity:1;" d="M 434.726562 318.425781 C 434.824219 318.027344 434.882812 317.617188 434.898438 317.203125 C 434.984375 316.320312 435.09375 315.207031 435.222656 313.882812 C 435.382812 312.25 435.632812 310.625 435.964844 309.019531 C 436.402344 307.054688 436.996094 305.132812 437.734375 303.261719 C 438.464844 301.394531 439.453125 299.640625 440.671875 298.050781 C 441.664062 296.757812 442.933594 295.703125 444.382812 294.960938 C 445.367188 294.472656 446.421875 294.144531 447.503906 293.984375 C 447.914062 293.96875 448.320312 293.910156 448.71875 293.8125 C 448.308594 293.761719 447.894531 293.761719 447.484375 293.8125 C 446.363281 293.902344 445.269531 294.191406 444.25 294.664062 C 442.722656 295.386719 441.382812 296.453125 440.332031 297.78125 C 439.0625 299.394531 438.039062 301.183594 437.292969 303.097656 C 436.539062 304.996094 435.949219 306.953125 435.535156 308.949219 C 435.21875 310.582031 435.003906 312.234375 434.886719 313.894531 C 434.777344 315.304688 434.742188 316.449219 434.71875 317.238281 C 434.683594 317.632812 434.683594 318.03125 434.726562 318.425781 Z M 434.726562 318.425781 "/>
<path style=" stroke:none;fill-rule:nonzero;fill:rgb(18.431373%,18.039216%,25.490196%);fill-opacity:1;" d="M 434.957031 315.863281 C 434.988281 315.6875 434.996094 315.503906 434.988281 315.324219 C 434.988281 314.902344 434.988281 314.367188 434.988281 313.703125 C 434.988281 312.300781 434.988281 310.269531 435.058594 307.761719 C 435.183594 302.742188 435.597656 297.34375 436.449219 289.734375 C 437.238281 282.574219 438.296875 274.25 439.410156 268.828125 C 439.652344 267.597656 439.890625 266.492188 440.117188 265.519531 C 440.34375 264.546875 440.523438 263.707031 440.699219 263.027344 C 440.878906 262.347656 440.980469 261.871094 441.078125 261.457031 C 441.132812 261.28125 441.164062 261.097656 441.175781 260.914062 C 441.089844 261.085938 441.023438 261.269531 440.980469 261.457031 L 440.511719 263.003906 C 440.300781 263.679688 440.089844 264.511719 439.847656 265.480469 C 439.605469 266.445312 439.308594 267.554688 439.066406 268.78125 C 437.683594 275.1875 436.640625 281.664062 435.949219 288.183594 C 435.113281 295.804688 434.742188 302.769531 434.703125 307.78125 C 434.675781 310.296875 434.703125 312.332031 434.796875 313.726562 C 434.832031 314.382812 434.867188 314.917969 434.890625 315.347656 C 434.890625 315.519531 434.914062 315.695312 434.957031 315.863281 Z M 434.957031 315.863281 "/>
<path style=" stroke:none;fill-rule:nonzero;fill:rgb(18.431373%,18.039216%,25.490196%);fill-opacity:1;" d="M 434.988281 302.472656 C 435.03125 301.910156 435.03125 301.34375 434.988281 300.78125 C 434.925781 299.699219 434.773438 298.128906 434.449219 296.203125 C 434.082031 293.953125 433.582031 291.726562 432.960938 289.53125 C 432.238281 286.835938 431.308594 284.199219 430.179688 281.644531 C 428.25 276.929688 425.480469 272.609375 422.003906 268.890625 C 421.402344 268.25 420.757812 267.652344 420.078125 267.101562 C 419.789062 266.847656 419.539062 266.597656 419.257812 266.402344 L 418.515625 265.863281 C 418.066406 265.519531 417.589844 265.21875 417.089844 264.957031 C 417.015625 265.0625 419.109375 266.296875 421.746094 269.117188 C 425.105469 272.867188 427.804688 277.164062 429.722656 281.824219 C 430.824219 284.363281 431.761719 286.976562 432.519531 289.640625 C 433.246094 292.089844 433.734375 294.347656 434.101562 296.242188 C 434.464844 298.140625 434.640625 299.699219 434.769531 300.777344 C 434.796875 301.347656 434.871094 301.914062 434.988281 302.472656 Z M 434.988281 302.472656 "/>
<path style=" stroke:none;fill-rule:nonzero;fill:rgb(18.431373%,18.039216%,25.490196%);fill-opacity:1;" d="M 422.0625 326.101562 L 423.40625 344.488281 L 446.984375 344.488281 L 448.324219 326.101562 Z M 422.0625 326.101562 "/>
<path style=" stroke:none;fill-rule:nonzero;fill:rgb(18.431373%,18.039216%,25.490196%);fill-opacity:1;" d="M 419.789062 318.851562 L 451.140625 318.851562 L 451.140625 326.101562 L 419.789062 326.101562 Z M 419.789062 318.851562 "/>
<use xlink:href="#surface89" mask="url(#mask28)"/>
<path style=" stroke:none;fill-rule:nonzero;fill:rgb(18.431373%,18.039216%,25.490196%);fill-opacity:1;" d="M 419.789062 343.785156 L 419.789062 345.796875 L 450.621094 345.796875 L 450.621094 343.785156 Z M 419.789062 343.785156 "/>
<use xlink:href="#surface92" mask="url(#mask29)"/>
<path style=" stroke:none;fill-rule:nonzero;fill:rgb(18.431373%,18.039216%,25.490196%);fill-opacity:1;" d="M 422.707031 349.328125 L 421.261719 345.796875 L 449.496094 345.796875 L 447.8125 349.328125 Z M 422.707031 349.328125 "/>
<path style=" stroke:none;fill-rule:nonzero;fill:rgb(100%,100%,100%);fill-opacity:1;" d="M 447.886719 332.109375 C 447.859375 332.171875 447.820312 332.226562 447.773438 332.277344 L 447.425781 332.75 L 446.050781 334.507812 L 445.992188 334.585938 L 445.929688 334.503906 L 442.554688 329.832031 L 442.734375 329.832031 L 439.410156 334.542969 L 439.308594 334.6875 L 439.191406 334.554688 L 435.25 329.851562 L 435.476562 329.851562 C 435.410156 329.9375 435.335938 330.03125 435.257812 330.121094 L 431.738281 334.546875 L 431.617188 334.699219 L 431.511719 334.542969 L 428.1875 329.832031 L 428.378906 329.832031 L 424.285156 334.503906 L 424.214844 334.585938 L 424.15625 334.492188 L 422.878906 332.332031 L 422.546875 331.757812 C 422.503906 331.695312 422.46875 331.628906 422.445312 331.554688 C 422.5 331.609375 422.546875 331.671875 422.585938 331.738281 C 422.679688 331.882812 422.800781 332.0625 422.949219 332.277344 L 424.296875 334.394531 L 424.167969 334.394531 L 428.195312 329.667969 L 428.296875 329.550781 L 428.390625 329.679688 L 431.742188 334.367188 L 431.515625 334.367188 L 435.03125 329.933594 L 435.25 329.664062 L 435.363281 329.523438 L 435.476562 329.65625 L 439.40625 334.363281 L 439.183594 334.363281 L 442.539062 329.675781 L 442.636719 329.539062 L 442.734375 329.675781 L 446.039062 334.402344 L 445.914062 334.402344 L 447.34375 332.6875 L 447.726562 332.242188 C 447.835938 332.152344 447.882812 332.105469 447.886719 332.109375 Z M 447.886719 332.109375 "/>
<use xlink:href="#surface95" mask="url(#mask30)"/>
<path style=" stroke:none;fill-rule:nonzero;fill:rgb(97.647059%,70.588235%,60%);fill-opacity:1;" d="M 318.570312 136.550781 C 317.65625 136.214844 316.578125 136.816406 315.871094 137.925781 C 315.871094 137.855469 315.859375 137.757812 315.839844 137.632812 C 315.898438 137.269531 315.964844 136.902344 316.007812 136.550781 C 317.054688 127.792969 313.398438 120.15625 307.84375 119.484375 C 302.289062 118.816406 296.929688 125.375 295.882812 134.136719 C 294.847656 142.78125 298.410156 150.34375 303.867188 151.171875 L 302.828125 159.152344 C 302.828125 159.152344 301.691406 164.457031 306.84375 164.894531 C 306.84375 164.894531 310.664062 164.941406 317.898438 155.535156 C 317.761719 151.085938 317.085938 146.664062 315.886719 142.375 C 316.003906 142.410156 316.121094 142.433594 316.238281 142.453125 C 316.289062 142.480469 316.339844 142.503906 316.390625 142.527344 C 317.515625 142.9375 318.90625 141.9375 319.511719 140.289062 C 320.117188 138.640625 319.691406 136.960938 318.570312 136.550781 Z M 318.570312 136.550781 "/>
<path style=" stroke:none;fill-rule:nonzero;fill:rgb(18.431373%,18.039216%,25.490196%);fill-opacity:1;" d="M 316.007812 118.945312 C 316.007812 118.945312 299.9375 106.421875 295.742188 115.984375 C 295.742188 115.984375 292.0625 119.953125 299.304688 123.914062 C 299.304688 123.914062 299.617188 127.664062 304.132812 126.109375 C 304.132812 126.109375 309.226562 123.140625 310.898438 124.9375 C 310.898438 124.9375 314.71875 128.339844 315.921875 138.058594 C 315.921875 138.058594 318.039062 135.925781 319 137.449219 C 319 137.449219 324.496094 126.285156 321.550781 123.941406 C 321.523438 123.914062 321.5625 117.144531 316.007812 118.945312 Z M 316.007812 118.945312 "/>
<path style=" stroke:none;fill-rule:nonzero;fill:rgb(96.862745%,64.313725%,54.509804%);fill-opacity:1;" d="M 80.539062 110.101562 L 80.328125 105.917969 C 80.328125 105.917969 76.738281 112.003906 69.542969 106.011719 C 69.566406 106.011719 71.769531 113.996094 80.539062 110.101562 Z M 80.539062 110.101562 "/>
<path style=" stroke:none;fill-rule:nonzero;fill:rgb(97.647059%,70.588235%,60%);fill-opacity:1;" d="M 84.113281 97.117188 C 84.113281 90.324219 79.847656 84.816406 74.585938 84.816406 C 69.324219 84.816406 65.054688 90.324219 65.054688 97.117188 C 65.054688 103.910156 69.324219 109.417969 74.585938 109.417969 C 79.847656 109.417969 84.113281 103.910156 84.113281 97.117188 Z M 84.113281 97.117188 "/>
<path style=" stroke:none;fill-rule:nonzero;fill:rgb(18.431373%,18.039216%,25.490196%);fill-opacity:1;" d="M 65.054688 100.488281 C 65.210938 100.679688 72.8125 97.246094 76.601562 86.496094 C 76.601562 86.496094 78.792969 85.1875 82.410156 90.625 C 82.410156 90.625 81.332031 83.261719 72.027344 81.910156 C 72.027344 81.910156 59.496094 79.148438 54.472656 87.808594 C 54.472656 87.808594 47.84375 105.324219 64.117188 109.960938 C 64.117188 109.960938 65.820312 110.617188 66.652344 109.257812 C 66.960938 108.6875 67 108.007812 66.753906 107.40625 C 66.507812 106.804688 66.007812 106.34375 65.386719 106.15625 C 63.339844 105.53125 60.199219 104.101562 60.402344 101.292969 C 60.398438 101.285156 61.476562 96.253906 65.054688 100.488281 Z M 65.054688 100.488281 "/>
<path style=" stroke:none;fill-rule:nonzero;fill:rgb(96.862745%,64.313725%,54.509804%);fill-opacity:1;" d="M 303.875 151.148438 L 303.625 153.050781 C 303.625 153.050781 309.367188 152.199219 311.929688 148.242188 C 311.929688 148.242188 306.765625 151.769531 303.875 151.148438 Z M 303.875 151.148438 "/>
</g>
</svg>
