<?xml version="1.0" encoding="UTF-8"?>
<svg xmlns="http://www.w3.org/2000/svg" xmlns:xlink="http://www.w3.org/1999/xlink" width="166px" height="93px" viewBox="0 0 165 93" version="1.1">
<g id="surface1">
<path style=" stroke:none;fill-rule:nonzero;fill:rgb(0%,0%,0%);fill-opacity:1;" d="M 59.28125 37.5625 C 59.296875 65.273438 59.324219 72.375 59.410156 72.4375 C 59.519531 72.503906 70.152344 72.53125 70.425781 72.453125 C 70.597656 72.410156 70.597656 72.351562 70.570312 46.644531 C 70.5625 32.472656 70.570312 20.796875 70.597656 20.683594 C 70.648438 20.484375 70.882812 20.425781 71.042969 20.589844 C 71.105469 20.648438 71.121094 20.613281 71.097656 20.460938 C 71.042969 20.183594 71.105469 20.183594 71.542969 20.433594 C 71.730469 20.546875 73.90625 21.804688 76.371094 23.234375 C 78.847656 24.664062 80.945312 25.832031 81.039062 25.832031 C 81.28125 25.832031 81.339844 26.039062 81.175781 26.28125 C 81.046875 26.453125 81.039062 28.5625 81.039062 49.125 C 81.039062 61.578125 81.074219 71.816406 81.109375 71.859375 C 81.140625 71.921875 82.054688 71.964844 83.574219 71.980469 C 84.898438 71.996094 87.082031 72.03125 88.421875 72.066406 C 90.828125 72.117188 90.863281 72.117188 90.972656 71.9375 C 91.078125 71.789062 91.09375 68.078125 91.09375 48.980469 L 91.09375 26.210938 L 91.394531 26.066406 C 91.566406 25.988281 91.738281 25.917969 91.789062 25.917969 C 91.867188 25.917969 92.675781 25.488281 95.890625 23.707031 C 96.472656 23.386719 96.894531 23.15625 97.925781 22.605469 C 98.355469 22.378906 99.414062 21.8125 100.273438 21.339844 C 101.140625 20.875 101.871094 20.496094 101.886719 20.496094 C 101.90625 20.496094 101.921875 20.648438 101.921875 20.832031 C 101.921875 21.019531 101.964844 21.199219 102.007812 21.226562 C 102.066406 21.261719 102.09375 29.921875 102.09375 46.929688 C 102.09375 70.230469 102.101562 72.574219 102.230469 72.625 C 102.308594 72.652344 104.785156 72.679688 107.730469 72.679688 L 113.09375 72.679688 L 113.09375 3.003906 L 112.90625 3.109375 C 112.613281 3.261719 112.027344 3.652344 111.976562 3.71875 C 111.949219 3.753906 111.753906 3.859375 111.546875 3.953125 C 111.332031 4.046875 111.03125 4.21875 110.867188 4.339844 C 110.703125 4.46875 110.523438 4.5625 110.480469 4.5625 C 110.429688 4.5625 110.121094 4.746094 109.785156 4.960938 C 109.457031 5.175781 109.011719 5.449219 108.796875 5.570312 C 108.582031 5.683594 108.160156 5.933594 107.851562 6.113281 C 107.542969 6.292969 107.121094 6.542969 106.90625 6.664062 C 106.191406 7.078125 106.003906 7.191406 105.660156 7.429688 C 105.472656 7.5625 105.273438 7.664062 105.222656 7.664062 C 105.171875 7.664062 105.03125 7.742188 104.914062 7.835938 C 104.792969 7.921875 104.492188 8.113281 104.234375 8.25 C 103.183594 8.800781 102.300781 9.335938 102.109375 9.53125 C 102.050781 9.59375 101.957031 9.644531 101.90625 9.644531 C 101.851562 9.644531 101.3125 9.945312 100.703125 10.308594 C 99.136719 11.253906 98.597656 11.582031 98.054688 11.875 C 97.796875 12.019531 97.238281 12.347656 96.808594 12.605469 C 96.386719 12.875 95.820312 13.199219 95.5625 13.347656 C 94.925781 13.707031 94.78125 13.796875 93.328125 14.648438 C 92.640625 15.050781 91.859375 15.507812 91.59375 15.664062 L 91.09375 15.9375 L 91.09375 25.738281 L 81.296875 25.753906 L 81.296875 15.714844 L 80.925781 15.507812 C 80.472656 15.25 77.929688 13.75 76.742188 13.046875 C 75.753906 12.453125 70.460938 9.324219 66.84375 7.199219 C 66.445312 6.964844 65.992188 6.691406 65.828125 6.585938 C 65.664062 6.484375 65.234375 6.234375 64.882812 6.027344 C 64.53125 5.820312 64.101562 5.570312 63.9375 5.46875 C 62.976562 4.867188 62.75 4.734375 62.675781 4.734375 C 62.621094 4.734375 62.484375 4.660156 62.375 4.5625 C 62.253906 4.46875 61.996094 4.304688 61.804688 4.203125 C 61.332031 3.925781 60.183594 3.246094 59.761719 2.980469 C 59.5625 2.859375 59.367188 2.753906 59.332031 2.753906 C 59.289062 2.753906 59.261719 17.859375 59.28125 37.5625 Z M 59.28125 37.5625 "/>
<path style=" stroke:none;fill-rule:nonzero;fill:rgb(0%,0%,0%);fill-opacity:1;" d="M 71.550781 33.917969 C 71.59375 33.960938 72.523438 34.738281 73.605469 35.640625 C 74.695312 36.554688 75.582031 37.328125 75.582031 37.363281 C 75.582031 37.40625 74.664062 38.207031 73.535156 39.144531 C 72.410156 40.085938 71.535156 40.867188 71.59375 40.894531 C 71.65625 40.910156 72.617188 41.6875 73.726562 42.617188 C 75.144531 43.804688 75.695312 44.3125 75.582031 44.328125 C 75.496094 44.347656 74.535156 45.113281 73.433594 46.035156 C 72.332031 46.957031 71.386719 47.707031 71.335938 47.707031 C 71.0625 47.707031 71.429688 48.066406 73.269531 49.589844 C 74.378906 50.511719 75.28125 51.289062 75.28125 51.3125 C 75.28125 51.339844 74.371094 52.125 73.253906 53.042969 L 71.234375 54.722656 L 72.960938 54.75 L 74.679688 54.765625 L 76.691406 53.085938 C 77.800781 52.167969 78.746094 51.410156 78.796875 51.410156 C 79.070312 51.410156 78.703125 51.046875 76.863281 49.523438 C 75.753906 48.601562 74.859375 47.816406 74.867188 47.78125 C 74.921875 47.644531 78.941406 44.355469 79.089844 44.328125 C 79.191406 44.3125 78.5625 43.734375 77.171875 42.582031 C 76.039062 41.632812 75.109375 40.84375 75.117188 40.816406 C 75.117188 40.789062 76.046875 40 77.179688 39.050781 C 78.316406 38.105469 79.191406 37.3125 79.132812 37.292969 C 79.070312 37.277344 78.109375 36.492188 76.984375 35.546875 L 74.945312 33.839844 L 73.203125 33.839844 C 72.160156 33.839844 71.5 33.875 71.550781 33.917969 Z M 71.550781 33.917969 "/>
<path style=" stroke:none;fill-rule:nonzero;fill:rgb(0%,0%,0%);fill-opacity:1;" d="M 96.277344 36.019531 C 95.132812 36.976562 94.195312 37.785156 94.195312 37.8125 C 94.1875 37.835938 95.105469 38.628906 96.234375 39.566406 C 97.351562 40.5 98.269531 41.300781 98.269531 41.34375 C 98.269531 41.453125 94.460938 44.605469 94.332031 44.605469 C 94.265625 44.605469 94.214844 44.664062 94.214844 44.734375 C 94.214844 44.804688 94.265625 44.863281 94.332031 44.863281 C 94.460938 44.863281 98.269531 48.015625 98.269531 48.128906 C 98.269531 48.171875 97.351562 48.972656 96.234375 49.902344 C 95.105469 50.839844 94.1875 51.632812 94.195312 51.65625 C 94.195312 51.683594 95.140625 52.492188 96.300781 53.457031 L 98.398438 55.195312 L 100.125 55.179688 L 101.851562 55.152344 L 99.808594 53.441406 C 98.671875 52.5 97.746094 51.710938 97.738281 51.675781 C 97.726562 51.648438 98.648438 50.855469 99.78125 49.910156 C 100.917969 48.972656 101.835938 48.171875 101.820312 48.136719 C 101.800781 48.101562 100.917969 47.335938 99.84375 46.449219 C 98.777344 45.554688 97.882812 44.796875 97.867188 44.761719 C 97.855469 44.726562 98.734375 43.960938 99.816406 43.046875 C 100.90625 42.144531 101.800781 41.367188 101.820312 41.332031 C 101.828125 41.300781 100.917969 40.5 99.78125 39.558594 C 98.648438 38.621094 97.726562 37.820312 97.738281 37.792969 C 97.746094 37.757812 98.621094 37.011719 99.6875 36.125 C 100.753906 35.238281 101.679688 34.460938 101.75 34.394531 C 101.851562 34.289062 101.628906 34.273438 100.117188 34.28125 L 98.355469 34.28125 Z M 96.277344 36.019531 "/>
<path style=" stroke:none;fill-rule:nonzero;fill:rgb(0%,0%,0%);fill-opacity:1;" d="M 81.984375 82.367188 L 81.984375 88.609375 L 84.992188 88.609375 L 84.992188 86.007812 L 85.386719 85.5 C 85.601562 85.222656 85.808594 84.992188 85.84375 84.992188 C 85.886719 84.992188 86.082031 85.386719 86.28125 85.871094 C 86.480469 86.359375 86.8125 87.171875 87.027344 87.6875 L 87.414062 88.609375 L 89.039062 88.609375 C 89.933594 88.609375 90.664062 88.589844 90.664062 88.566406 C 90.664062 88.539062 90.0625 87.1875 89.332031 85.570312 C 88.601562 83.949219 88 82.582031 88 82.527344 C 88 82.476562 88.222656 82.140625 88.5 81.796875 C 88.773438 81.445312 89.316406 80.746094 89.703125 80.230469 L 90.414062 79.308594 L 87.613281 79.308594 L 86.582031 80.660156 C 86.015625 81.410156 85.4375 82.175781 85.292969 82.382812 C 85.15625 82.589844 85.019531 82.753906 84.992188 82.753906 C 84.964844 82.753906 84.957031 81.261719 84.976562 79.4375 L 85 76.121094 L 81.984375 76.121094 Z M 81.984375 82.367188 "/>
<path style=" stroke:none;fill-rule:nonzero;fill:rgb(0%,0%,0%);fill-opacity:1;" d="M 100.976562 82.367188 L 100.976562 88.609375 L 104.328125 88.609375 L 104.328125 76.121094 L 100.976562 76.121094 Z M 100.976562 82.367188 "/>
<path style=" stroke:none;fill-rule:nonzero;fill:rgb(0%,0%,0%);fill-opacity:1;" d="M 105.359375 77.628906 L 105.359375 79.136719 L 107.679688 79.136719 L 107.679688 88.609375 L 110.773438 88.609375 L 110.773438 79.136719 L 113.09375 79.136719 L 113.09375 76.121094 L 105.359375 76.121094 Z M 105.359375 77.628906 "/>
<path style=" stroke:none;fill-rule:nonzero;fill:rgb(0%,0%,0%);fill-opacity:1;" d="M 62.675781 79.214844 C 62.21875 79.335938 61.644531 79.722656 61.386719 80.082031 C 61.257812 80.273438 61.117188 80.429688 61.085938 80.429688 C 61.042969 80.429688 61.015625 80.179688 61.015625 79.867188 L 61.015625 79.308594 L 58.179688 79.308594 L 58.179688 88.609375 L 61.273438 88.609375 L 61.273438 85.414062 C 61.273438 82.160156 61.289062 81.988281 61.609375 81.746094 C 61.78125 81.617188 62.175781 81.609375 62.40625 81.726562 C 62.785156 81.933594 62.820312 82.210938 62.820312 85.507812 L 62.820312 88.609375 L 65.8125 88.609375 L 65.84375 85.570312 C 65.871094 82.789062 65.886719 82.511719 66.035156 82.234375 C 66.25 81.832031 66.414062 81.726562 66.789062 81.71875 C 67.03125 81.71875 67.144531 81.769531 67.28125 81.941406 C 67.453125 82.167969 67.460938 82.261719 67.460938 85.386719 L 67.460938 88.609375 L 70.5625 88.609375 L 70.527344 84.792969 C 70.496094 80.582031 70.503906 80.601562 69.9375 79.960938 C 69.496094 79.453125 68.878906 79.195312 68.105469 79.1875 C 67.160156 79.179688 66.730469 79.34375 66.113281 79.953125 L 65.585938 80.480469 L 65.277344 80.074219 C 64.890625 79.550781 64.265625 79.230469 63.507812 79.179688 C 63.199219 79.160156 62.828125 79.171875 62.675781 79.214844 Z M 62.675781 79.214844 "/>
<path style=" stroke:none;fill-rule:nonzero;fill:rgb(0%,0%,0%);fill-opacity:1;" d="M 75.238281 79.222656 C 74.164062 79.394531 73.449219 79.746094 72.847656 80.429688 C 72.402344 80.925781 71.914062 82.0625 72.144531 82.0625 C 72.28125 82.0625 74.578125 82.332031 74.730469 82.367188 C 74.878906 82.398438 74.9375 82.339844 75.050781 82.0625 C 75.222656 81.625 75.625 81.375 76.167969 81.375 C 76.898438 81.375 77.171875 81.625 77.171875 82.296875 C 77.171875 82.597656 77.179688 82.589844 76.011719 82.710938 C 74.550781 82.863281 73.320312 83.339844 72.644531 84.011719 C 72.050781 84.605469 71.886719 85.042969 71.886719 86.023438 C 71.886719 86.75 71.914062 86.894531 72.128906 87.289062 C 72.566406 88.125 73.117188 88.53125 74.050781 88.703125 C 75.144531 88.910156 76.183594 88.589844 76.914062 87.832031 L 77.335938 87.386719 L 77.394531 87.996094 L 77.457031 88.609375 L 80.515625 88.609375 L 80.421875 88.324219 C 80.359375 88.160156 80.300781 86.722656 80.265625 84.734375 C 80.222656 82.625 80.164062 81.296875 80.101562 81.097656 C 79.84375 80.28125 79.011719 79.582031 78.015625 79.351562 C 77.25 79.179688 75.925781 79.117188 75.238281 79.222656 Z M 77.171875 84.921875 C 77.164062 85.730469 76.964844 86.195312 76.542969 86.394531 C 75.996094 86.664062 75.382812 86.542969 75.203125 86.136719 C 74.886719 85.4375 75.425781 84.707031 76.476562 84.421875 C 77.179688 84.234375 77.171875 84.226562 77.171875 84.921875 Z M 77.171875 84.921875 "/>
<path style=" stroke:none;fill-rule:nonzero;fill:rgb(0%,0%,0%);fill-opacity:1;" d="M 94.273438 79.230469 C 92.253906 79.566406 90.75 81.617188 90.75 84.042969 C 90.75 86.972656 92.890625 89.003906 95.691406 88.746094 C 97.253906 88.601562 98.242188 88.046875 99 86.867188 C 99.316406 86.386719 99.585938 85.636719 99.488281 85.535156 C 99.445312 85.5 96.644531 85.242188 96.636719 85.285156 C 96.378906 86.136719 95.957031 86.542969 95.3125 86.542969 C 94.71875 86.542969 94.402344 86.308594 94.238281 85.757812 C 94.160156 85.507812 94.101562 85.15625 94.101562 84.972656 L 94.101562 84.648438 L 96.800781 84.648438 C 99.394531 84.648438 99.507812 84.636719 99.558594 84.484375 C 99.644531 84.207031 99.445312 82.625 99.25 82.046875 C 99.007812 81.324219 98.65625 80.789062 98.054688 80.230469 C 97.074219 79.316406 95.792969 78.980469 94.273438 79.230469 Z M 95.992188 81.589844 C 96.128906 81.71875 96.257812 81.941406 96.292969 82.074219 C 96.320312 82.210938 96.363281 82.433594 96.386719 82.582031 L 96.4375 82.839844 L 94.074219 82.839844 L 94.117188 82.398438 C 94.195312 81.640625 94.625 81.253906 95.332031 81.316406 C 95.632812 81.339844 95.8125 81.410156 95.992188 81.589844 Z M 95.992188 81.589844 "/>
</g>
</svg>
